# This file uses centimeters as units for non-parametric coordinates.

mtllib refri.mtl
g default
v -1.770300 4.779268 1.436404
v -1.267698 4.779268 1.436404
v -1.770300 6.830220 1.436404
v -1.267698 6.830220 1.436404
v -1.770300 6.830220 1.171159
v -1.267698 6.830220 1.171159
v -1.770300 4.779268 1.171159
v -1.267698 4.779268 1.171159
v -1.770300 6.500381 1.436404
v -1.267698 6.500381 1.436404
v -1.267698 6.500381 1.171159
v -1.770300 6.500381 1.171159
v -1.770300 5.088581 1.436404
v -1.267698 5.088581 1.436404
v -1.267698 5.088581 1.171159
v -1.770300 5.088581 1.171159
v -1.770300 6.830220 1.016686
v -1.267698 6.830220 1.016686
v -1.267698 6.500381 1.016686
v -1.770300 6.500381 1.016686
v -1.267698 5.088581 1.016686
v -1.770300 5.088581 1.016686
v -1.267698 4.779268 1.016686
v -1.770300 4.779268 1.016686
v -1.770300 1.960414 1.436404
v -1.267698 1.960414 1.436404
v -1.770300 4.308373 1.436404
v -1.267698 4.308373 1.436404
v -1.770300 4.308373 1.171159
v -1.267698 4.308373 1.171159
v -1.770300 1.960414 1.171159
v -1.267698 1.960414 1.171159
v -1.770300 3.978542 1.436404
v -1.267698 3.978542 1.436404
v -1.267698 3.978542 1.171159
v -1.770300 3.978542 1.171159
v -1.770300 2.269734 1.436404
v -1.267698 2.269734 1.436404
v -1.267698 2.269734 1.171159
v -1.770300 2.269734 1.171159
v -1.770300 4.308373 1.016686
v -1.267698 4.308373 1.016686
v -1.267698 3.978535 1.016686
v -1.770300 3.978535 1.016686
v -1.267698 2.269728 1.016686
v -1.770300 2.269728 1.016686
v -1.267698 1.960414 1.016686
v -1.770300 1.960414 1.016686
v -1.895517 0.000000 1.103063
v 2.016572 0.000000 1.103063
v -1.895517 7.047565 1.103063
v 2.016572 7.047565 1.103063
v -1.895517 7.047565 -1.112613
v 2.016572 7.047565 -1.112613
v -1.895517 0.000000 -1.112613
v 2.016572 0.000000 -1.112613
v -1.895517 4.492626 1.103063
v 2.016572 4.492626 1.103063
v 2.016572 4.492626 -1.112613
v -1.895517 4.492626 -1.112613
v 2.016572 4.542768 1.103063
v -1.895517 4.542768 1.103063
v -1.895517 4.542768 -1.112613
v 2.016572 4.542768 -1.112613
v -1.885517 4.502626 1.103063
v 2.006572 4.502626 1.103063
v 2.006572 4.532767 1.103063
v -1.885517 4.532767 1.103063
v -1.885517 4.502626 1.003063
v 2.006572 4.502626 1.003063
v 2.006572 4.532767 1.003063
v -1.885517 4.532767 1.003063
vt 0.166627 0.212159
vt 0.203563 0.212159
vt 0.166627 0.237394
vt 0.203563 0.257025
vt 0.203563 0.237394
vt 0.203563 0.268671
vt 0.138562 0.268671
vt 0.166627 0.062139
vt 0.166627 0.257025
vt 0.138562 0.292690
vt 0.166627 0.080387
vt 0.138562 0.257025
vt 0.166627 0.105717
vt 0.234521 0.080387
vt 0.234521 0.062139
vt 0.100669 0.268671
vt 0.234521 0.050753
vt 0.166627 0.050753
vt 0.203563 0.062139
vt 0.203563 0.080387
vt 0.144686 0.050753
vt 0.203563 0.050753
vt 0.135641 0.062139
vt 0.100669 0.257025
vt 0.107793 0.105717
vt 0.226432 0.268671
vt 0.223335 0.212159
vt 0.106680 0.050753
vt 0.145446 0.237394
vt 0.326483 0.221940
vt 0.363564 0.221940
vt 0.363564 0.246635
vt 0.326483 0.246635
vt 0.363564 0.266844
vt 0.326483 0.266844
vt 0.302891 0.303839
vt 0.363564 0.278500
vt 0.264965 0.278500
vt 0.302891 0.278500
vt 0.326483 0.049422
vt 0.363564 0.049422
vt 0.363564 0.067471
vt 0.326483 0.067471
vt 0.384544 0.221940
vt 0.302891 0.266844
vt 0.306587 0.246635
vt 0.326483 0.092994
vt 0.392413 0.067471
vt 0.392413 0.049422
vt 0.264965 0.266844
vt 0.268533 0.092994
vt 0.296550 0.049422
vt 0.296550 0.037980
vt 0.263925 0.037980
vt 0.363564 0.037980
vt 0.326483 0.037980
vt 0.390470 0.278500
vt 0.392413 0.037980
vt 0.014833 0.659776
vt 0.311241 0.659776
vt 0.311241 0.662070
vt 0.012769 0.659776
vt 0.756751 0.989528
vt 0.475744 0.987987
vt 0.476617 0.828834
vt 0.757624 0.830375
vt 0.758610 0.650454
vt 0.477604 0.648913
vt 0.477623 0.645312
vt 0.758630 0.646853
vt 0.760400 0.324146
vt 0.479393 0.322605
vt 0.480266 0.163452
vt 0.761273 0.164993
vt 0.307938 0.651594
vt 0.309300 0.670286
vt 0.917783 0.647725
vt 0.917763 0.651327
vt 0.014857 0.315618
vt 0.307938 0.315618
vt 0.014857 0.651594
vt 0.919553 0.325018
vt 0.012703 0.656725
vt 0.309300 0.857420
vt 0.018525 0.857420
vt 0.916776 0.831248
vt 0.311241 0.652341
vt 0.014833 0.652341
vt 0.311241 0.669542
vt 0.012769 0.657897
vt 0.318451 0.648040
vt 0.317464 0.827961
vt 0.318471 0.644439
vt 0.320240 0.321732
vt 0.018525 0.670286
vt 0.014833 0.662070
vt 0.313166 0.659776
vt 0.013449 0.656725
vt 0.014833 0.669542
vt 0.312509 0.652341
vt 0.313166 0.652341
vt 0.312509 0.648870
vt 0.306587 0.092994
vt 0.384544 0.092994
vt 0.263925 0.049422
vt 0.306587 0.221940
vt 0.268533 0.221940
vt 0.145446 0.105717
vt 0.223335 0.105717
vt 0.106680 0.062139
vt 0.203563 0.105717
vt 0.145446 0.212159
vt 0.107793 0.212159
vt 0.363564 0.092994
vt 0.296550 0.067471
vt 0.135641 0.080387
vt 0.263925 0.015072
vt 0.326483 0.278500
vt 0.264965 0.303839
vt 0.106680 0.026614
vt 0.166627 0.268671
vt 0.100669 0.292690
vt 0.226432 0.257025
vt 0.223335 0.237394
vt 0.390470 0.266844
vt 0.384544 0.246635
vt 0.144686 0.026614
vt 0.296550 0.015072
vn 0.000000 0.000000 1.000000
vn 0.000000 0.000000 1.000000
vn 0.000000 0.000000 1.000000
vn 0.000000 0.000000 1.000000
vn 0.000000 1.000000 0.000000
vn 0.000000 1.000000 0.000000
vn 0.000000 1.000000 0.000000
vn 0.000000 1.000000 0.000000
vn 0.000000 0.000000 -1.000000
vn 0.000000 0.000000 -1.000000
vn 0.000000 0.000000 -1.000000
vn 0.000000 0.000000 -1.000000
vn 0.000000 -1.000000 0.000000
vn 0.000000 -1.000000 0.000000
vn 0.000000 -1.000000 0.000000
vn 0.000000 -1.000000 0.000000
vn 1.000000 0.000000 0.000000
vn 1.000000 0.000000 0.000000
vn 1.000000 0.000000 0.000000
vn 1.000000 0.000000 0.000000
vn -1.000000 0.000000 0.000000
vn -1.000000 0.000000 0.000000
vn -1.000000 0.000000 0.000000
vn -1.000000 0.000000 0.000000
vn 0.000000 0.000000 1.000000
vn 0.000000 0.000000 1.000000
vn 1.000000 0.000000 0.000000
vn 1.000000 0.000000 0.000000
vn 0.000000 0.000000 -1.000000
vn 0.000000 0.000000 -1.000000
vn 0.000000 0.000000 -1.000000
vn 0.000000 0.000000 -1.000000
vn -1.000000 0.000000 0.000000
vn -1.000000 0.000000 0.000000
vn 0.000000 0.000000 1.000000
vn 0.000000 0.000000 1.000000
vn 1.000000 0.000000 0.000000
vn 1.000000 0.000000 0.000000
vn 0.000000 0.000000 -1.000000
vn 0.000000 0.000000 -1.000000
vn 0.000000 0.000000 -1.000000
vn 0.000000 0.000000 -1.000000
vn -1.000000 0.000000 0.000000
vn -1.000000 0.000000 0.000000
vn 0.000000 1.000000 0.000000
vn 0.000000 1.000000 0.000000
vn 0.000000 1.000000 0.000000
vn 0.000000 1.000000 0.000000
vn 1.000000 0.000000 0.000000
vn 1.000000 0.000000 0.000000
vn 1.000000 0.000000 0.000000
vn 1.000000 0.000000 0.000000
vn 0.000000 -1.000000 0.000000
vn 0.000000 -1.000000 0.000000
vn 0.000000 -1.000000 0.000000
vn 0.000000 -1.000000 0.000000
vn -1.000000 0.000000 0.000000
vn -1.000000 0.000000 0.000000
vn -1.000000 0.000000 0.000000
vn -1.000000 0.000000 0.000000
vn 0.000000 1.000000 0.000000
vn 0.000000 1.000000 0.000000
vn 0.000000 1.000000 0.000000
vn 0.000000 1.000000 0.000000
vn 1.000000 0.000000 0.000000
vn 1.000000 0.000000 0.000000
vn 1.000000 0.000000 0.000000
vn 1.000000 0.000000 0.000000
vn 0.000000 -1.000000 0.000000
vn 0.000000 -1.000000 0.000000
vn 0.000000 -1.000000 0.000000
vn 0.000000 -1.000000 0.000000
vn -1.000000 0.000000 0.000000
vn -1.000000 0.000000 0.000000
vn -1.000000 0.000000 0.000000
vn -1.000000 0.000000 0.000000
vn 0.000000 0.000000 1.000000
vn 0.000000 0.000000 1.000000
vn 0.000000 0.000000 1.000000
vn 0.000000 0.000000 1.000000
vn 0.000000 1.000000 0.000000
vn 0.000000 1.000000 0.000000
vn 0.000000 1.000000 0.000000
vn 0.000000 1.000000 0.000000
vn 0.000000 0.000000 -1.000000
vn 0.000000 0.000000 -1.000000
vn 0.000000 0.000000 -1.000000
vn 0.000000 0.000000 -1.000000
vn 0.000000 -1.000000 0.000000
vn 0.000000 -1.000000 0.000000
vn 0.000000 -1.000000 0.000000
vn 0.000000 -1.000000 0.000000
vn 1.000000 0.000000 0.000000
vn 1.000000 0.000000 0.000000
vn 1.000000 0.000000 0.000000
vn 1.000000 0.000000 0.000000
vn -1.000000 0.000000 0.000000
vn -1.000000 0.000000 0.000000
vn -1.000000 0.000000 0.000000
vn -1.000000 0.000000 0.000000
vn 0.000000 0.000000 1.000000
vn 0.000000 0.000000 1.000000
vn 1.000000 0.000000 0.000000
vn 1.000000 0.000000 0.000000
vn 0.000000 0.000000 -1.000000
vn 0.000000 0.000000 -1.000000
vn 0.000000 0.000000 -1.000000
vn 0.000000 0.000000 -1.000000
vn -1.000000 0.000000 0.000000
vn -1.000000 0.000000 0.000000
vn 0.000000 0.000000 1.000000
vn 0.000000 0.000000 1.000000
vn 1.000000 0.000000 0.000000
vn 1.000000 0.000000 0.000000
vn 0.000000 0.000000 -1.000000
vn 0.000000 0.000000 -1.000000
vn 0.000000 0.000000 -1.000000
vn 0.000000 0.000000 -1.000000
vn -1.000000 0.000000 0.000000
vn -1.000000 0.000000 0.000000
vn 0.000000 1.000000 0.000000
vn 0.000000 1.000000 0.000000
vn 0.000000 1.000000 0.000000
vn 0.000000 1.000000 0.000000
vn 1.000000 0.000000 0.000000
vn 1.000000 0.000000 0.000000
vn 1.000000 0.000000 0.000000
vn 1.000000 0.000000 0.000000
vn 0.000000 -1.000000 0.000041
vn 0.000000 -1.000000 0.000041
vn 0.000000 -1.000000 0.000041
vn 0.000000 -1.000000 0.000041
vn -1.000000 0.000000 0.000000
vn -1.000000 0.000000 0.000000
vn -1.000000 0.000000 0.000000
vn -1.000000 0.000000 0.000000
vn 0.000000 1.000000 -0.000037
vn 0.000000 1.000000 -0.000037
vn 0.000000 1.000000 -0.000037
vn 0.000000 1.000000 -0.000037
vn 1.000000 0.000000 0.000000
vn 1.000000 0.000000 0.000000
vn 1.000000 0.000000 0.000000
vn 1.000000 0.000000 0.000000
vn 0.000000 -1.000000 0.000000
vn 0.000000 -1.000000 0.000000
vn 0.000000 -1.000000 0.000000
vn 0.000000 -1.000000 0.000000
vn -1.000000 0.000000 0.000000
vn -1.000000 0.000000 0.000000
vn -1.000000 0.000000 0.000000
vn -1.000000 0.000000 0.000000
vn 0.000000 0.000000 1.000000
vn 0.000000 0.000000 1.000000
vn 0.000000 0.000000 1.000000
vn 0.000000 0.000000 1.000000
vn 0.000000 1.000000 0.000000
vn 0.000000 1.000000 0.000000
vn 0.000000 1.000000 0.000000
vn 0.000000 1.000000 0.000000
vn 0.000000 0.000000 -1.000000
vn 0.000000 0.000000 -1.000000
vn 0.000000 0.000000 -1.000000
vn 0.000000 0.000000 -1.000000
vn 0.000000 -1.000000 0.000000
vn 0.000000 -1.000000 0.000000
vn 0.000000 -1.000000 0.000000
vn 0.000000 -1.000000 0.000000
vn 1.000000 0.000000 0.000000
vn 1.000000 0.000000 0.000000
vn 1.000000 0.000000 0.000000
vn 1.000000 0.000000 0.000000
vn -1.000000 0.000000 0.000000
vn -1.000000 0.000000 0.000000
vn -1.000000 0.000000 0.000000
vn -1.000000 0.000000 0.000000
vn 0.000000 0.000000 1.000000
vn 0.000000 0.000000 1.000000
vn 0.000000 0.000000 1.000000
vn 0.000000 0.000000 1.000000
vn 1.000000 0.000000 0.000000
vn 1.000000 0.000000 0.000000
vn 0.000000 0.000000 -1.000000
vn 0.000000 0.000000 -1.000000
vn -1.000000 0.000000 0.000000
vn -1.000000 0.000000 0.000000
vn 0.000000 0.000000 1.000000
vn 0.000000 0.000000 1.000000
vn 0.000000 0.000000 1.000000
vn 0.000000 0.000000 1.000000
vn -1.000000 0.000000 0.000000
vn -1.000000 0.000000 0.000000
vn 0.000000 0.000000 -1.000000
vn 0.000000 0.000000 -1.000000
vn 1.000000 0.000000 0.000000
vn 1.000000 0.000000 0.000000
vn 0.000000 0.000000 1.000000
vn 0.000000 0.000000 1.000000
vn 0.000000 0.000000 1.000000
vn 0.000000 0.000000 1.000000
vn 0.000000 1.000000 0.000000
vn 0.000000 1.000000 0.000000
vn 0.000000 1.000000 0.000000
vn 0.000000 1.000000 0.000000
vn -1.000000 0.000000 0.000000
vn -1.000000 0.000000 0.000000
vn -1.000000 0.000000 0.000000
vn -1.000000 0.000000 0.000000
vn 0.000000 -1.000000 0.000000
vn 0.000000 -1.000000 0.000000
vn 0.000000 -1.000000 0.000000
vn 0.000000 -1.000000 0.000000
vn 1.000000 -0.000005 0.000000
vn 1.000000 -0.000005 0.000000
vn 1.000000 -0.000005 0.000000
vn 1.000000 -0.000005 0.000000
s 1
g refri
usemtl initialShadingGroup
f 9/1/1 10/2/2 4/5/3 3/3/4
s off
f 3/3/5 4/5/6 6/4/7 5/9/8
f 17/10/9 18/122/10 19/16/11 20/7/12
f 7/8/13 8/19/14 2/20/15 1/11/16
s 2
f 10/2/17 11/27/18 6/124/19 4/5/20
s 3
f 12/112/21 9/1/22 3/3/23 5/29/24
s 1
f 13/13/25 14/111/26 10/2/2 9/1/1
s 2
f 14/111/27 15/109/28 11/27/18 10/2/17
s off
f 12/112/29 11/113/30 15/25/31 16/108/32
s 3
f 16/108/33 13/13/34 9/1/22 12/112/21
s 1
f 1/11/35 2/20/36 14/111/26 13/13/25
s 2
f 2/20/37 8/19/38 15/15/28 14/14/27
s off
f 22/21/39 21/28/40 23/120/41 24/127/42
s 3
f 7/8/43 1/11/44 13/116/34 16/23/33
s off
f 5/9/45 6/4/46 18/6/47 17/121/48
f 6/4/49 11/123/50 19/26/51 18/6/52
f 11/24/53 12/12/54 20/7/55 19/16/56
f 12/12/57 5/9/58 17/121/59 20/7/60
f 16/23/61 15/110/62 21/28/63 22/21/64
f 15/15/65 8/19/66 23/22/67 21/17/68
f 8/19/69 7/8/70 24/18/71 23/22/72
f 7/8/73 16/23/74 22/21/75 24/18/76
s 4
f 33/30/77 34/31/78 28/32/79 27/33/80
s off
f 27/33/81 28/32/82 30/34/83 29/35/84
f 41/36/85 42/119/86 43/38/87 44/39/88
f 31/40/89 32/41/90 26/42/91 25/43/92
s 5
f 34/31/93 35/44/94 30/126/95 28/32/96
s 6
f 36/106/97 33/30/98 27/33/99 29/46/100
s 4
f 37/47/101 38/114/102 34/31/78 33/30/77
s 5
f 38/114/103 39/104/104 35/44/94 34/31/93
s off
f 36/106/105 35/107/106 39/51/107 40/103/108
s 6
f 40/103/109 37/47/110 33/30/98 36/106/97
s 4
f 25/43/111 26/42/112 38/114/102 37/47/101
s 5
f 26/42/113 32/41/114 39/49/104 38/48/103
s off
f 46/53/115 45/54/116 47/117/117 48/128/118
s 6
f 31/40/119 25/43/120 37/115/110 40/52/109
s off
f 29/35/121 30/34/122 42/37/123 41/118/124
f 30/34/125 35/125/126 43/57/127 42/37/128
f 35/50/129 36/45/130 44/39/131 43/38/132
f 36/45/133 29/35/134 41/118/135 44/39/136
f 40/52/137 39/105/138 45/54/139 46/53/140
f 39/49/141 32/41/142 47/55/143 45/58/144
f 32/41/145 31/40/146 48/56/147 47/55/148
f 31/40/149 40/52/150 46/53/151 48/56/152
f 69/59/153 70/60/154 71/61/155 72/96/156
f 51/63/157 52/64/158 54/65/159 53/66/160
s 7
f 63/67/161 64/68/162 59/69/163 60/70/164
s off
f 55/71/165 56/72/166 50/73/167 49/74/168
s 8
f 58/93/169 59/69/170 64/68/171 61/91/172
s 9
f 60/70/173 57/77/174 62/78/175 63/67/176
s 10
f 49/79/177 50/80/178 58/75/179 57/81/180
s 8
f 50/94/181 56/72/182 59/69/170 58/93/169
s 7
f 60/70/164 59/69/163 56/72/183 55/71/184
s 9
f 55/71/185 49/82/186 57/77/174 60/70/173
s 10
f 62/95/187 61/76/188 52/84/189 51/85/190
s 9
f 63/67/176 62/78/175 51/86/191 53/66/192
s 7
f 53/66/193 54/65/194 64/68/162 63/67/161
s 8
f 61/91/172 64/68/171 54/65/195 52/92/196
s 10
f 57/81/180 58/75/179 66/87/197 65/88/198
f 58/75/179 61/102/188 67/100/199 66/87/197
f 61/76/188 62/95/187 68/99/200 67/89/199
f 62/83/187 57/81/180 65/88/198 68/98/200
s off
f 65/88/201 66/87/202 70/60/203 69/59/204
f 66/87/205 67/101/206 71/97/207 70/60/208
f 67/89/209 68/99/210 72/96/211 71/61/212
f 68/90/213 65/88/214 69/59/215 72/62/216
