# This file uses centimeters as units for non-parametric coordinates.

mtllib PISO1uVS.mtl
g default
v -10.835791 10.430104 -2.615877
v -8.391008 10.430104 -2.615877
v -10.835791 10.430104 -2.778863
v -8.391008 10.430104 -2.778863
v -10.835791 6.111761 -2.778863
v -8.391008 6.111761 -2.778863
v -10.835791 6.111761 -2.615877
v -8.391008 6.111761 -2.615877
vt 0.551507 0.578784
vt 0.745302 0.660693
vt 0.738152 0.721703
vt 0.558940 0.578784
vt 0.643741 0.721990
vt 0.747081 0.660589
vt 0.752734 0.579514
vt 0.645905 0.578912
vt 0.730706 0.722118
vt 0.645905 0.722118
vt 0.732499 0.578498
vt 0.738152 0.578498
vt 0.551507 0.721991
vt 0.557160 0.721991
vt 0.732499 0.721703
vt 0.739648 0.660692
vt 0.643741 0.578784
vt 0.745302 0.579618
vt 0.739648 0.579618
vt 0.557160 0.578784
vt 0.752734 0.660589
vt 0.730706 0.578911
vt 0.558940 0.721990
vt 0.747081 0.579515
vn -0.000000 1.000000 -0.000000
vn -0.000000 1.000000 -0.000000
vn -0.000000 1.000000 -0.000000
vn -0.000000 1.000000 -0.000000
vn -0.000000 -0.000000 -1.000000
vn -0.000000 -0.000000 -1.000000
vn -0.000000 -0.000000 -1.000000
vn -0.000000 -0.000000 -1.000000
vn 0.000000 -1.000000 0.000000
vn 0.000000 -1.000000 0.000000
vn 0.000000 -1.000000 0.000000
vn 0.000000 -1.000000 0.000000
vn 0.000000 0.000000 1.000000
vn 0.000000 0.000000 1.000000
vn 0.000000 0.000000 1.000000
vn 0.000000 0.000000 1.000000
vn 1.000000 -0.000000 -0.000000
vn 1.000000 -0.000000 -0.000000
vn 1.000000 -0.000000 -0.000000
vn 1.000000 -0.000000 -0.000000
vn -1.000000 0.000000 0.000000
vn -1.000000 0.000000 0.000000
vn -1.000000 0.000000 0.000000
vn -1.000000 0.000000 0.000000
s off
g polySurface40 polySurface19
usemtl initialShadingGroup
f 1/18/1 2/2/2 4/16/3 3/19/4
f 3/4/5 4/17/6 6/5/7 5/23/8
f 5/6/9 6/24/10 8/7/11 7/21/12
f 7/8/13 8/22/14 2/9/15 1/10/16
f 2/15/17 8/11/18 6/12/19 4/3/20
f 7/13/21 1/1/22 3/20/23 5/14/24
g default
v -10.954554 6.437441 9.219129
v -1.076726 6.437441 9.219123
v -10.954554 6.437441 -6.709813
v -1.076726 6.437441 -6.709806
v -10.954551 6.099842 -6.709788
v -1.076727 6.099842 -6.709806
v -10.954551 6.099842 9.219128
v -1.076727 6.099842 9.219122
vt 0.859953 0.490835
vt 0.859923 0.477068
vt 0.490907 0.481525
vt 0.491096 0.223671
vt 0.483280 0.477068
vt 0.483280 0.223671
vt 0.114433 0.477068
vt 0.114433 0.223671
vt 0.106616 0.477068
vt 0.106616 0.223671
vt 0.859749 0.484894
vt 0.490907 0.484894
vt 0.859953 0.487466
vt 0.491117 0.487466
vt 0.859749 0.481525
vt 0.491096 0.477068
vt 0.859923 0.223671
vt 0.491117 0.490835
vn -0.000000 1.000000 -0.000000
vn -0.000000 1.000000 -0.000000
vn -0.000000 1.000000 -0.000000
vn -0.000000 1.000000 -0.000000
vn -0.000001 -0.000036 -1.000000
vn -0.000001 -0.000036 -1.000000
vn -0.000001 -0.000036 -1.000000
vn -0.000001 -0.000036 -1.000000
vn 0.000000 -1.000000 0.000000
vn 0.000000 -1.000000 0.000000
vn 0.000000 -1.000000 0.000000
vn 0.000000 -1.000000 0.000000
vn 0.000001 -0.000003 1.000000
vn 0.000001 -0.000003 1.000000
vn 0.000001 -0.000003 1.000000
vn 0.000001 -0.000003 1.000000
vn 1.000000 -0.000004 -0.000000
vn 1.000000 -0.000004 -0.000000
vn 1.000000 -0.000004 -0.000000
vn 1.000000 -0.000004 -0.000000
vn -1.000000 -0.000009 0.000000
vn -1.000000 -0.000009 0.000000
vn -1.000000 -0.000009 0.000000
vn -1.000000 -0.000009 0.000000
s off
g polySurface19 polySurface39
usemtl initialShadingGroup
f 9/41/25 10/26/26 12/40/27 11/28/28
f 11/28/29 12/40/30 14/29/31 13/30/32
f 13/30/33 14/29/34 16/31/35 15/32/36
f 15/32/37 16/31/38 10/33/39 9/34/40
f 10/39/41 16/35/42 14/36/43 12/27/44
f 15/37/45 9/25/46 11/42/47 13/38/48
g default
v -1.384342 10.092664 6.447035
v -1.058371 10.092664 6.447035
v -1.384342 10.079297 -6.709806
v -1.058371 10.079297 -6.709806
v -1.384342 6.107665 -6.709806
v -1.058371 6.107665 -6.709806
v -1.384342 6.121031 6.447035
v -1.058371 6.121031 6.447035
vt 0.255286 0.644347
vt 0.255285 0.639764
vt 0.317419 0.685892
vt 0.255311 0.639030
vt 0.274069 0.637351
vt 0.255220 0.643729
vt 0.317361 0.642050
vt 0.255363 0.636617
vt 0.274121 0.634938
vt 0.274121 0.636617
vt 0.255278 0.665430
vt 0.317419 0.665430
vt 0.255286 0.664809
vt 0.317426 0.664809
vt 0.317361 0.643729
vt 0.255363 0.634938
vt 0.274069 0.639030
vt 0.255220 0.642050
vt 0.317424 0.641443
vt 0.255311 0.637351
vt 0.255278 0.685892
vt 0.317424 0.639764
vt 0.255285 0.641443
vt 0.317426 0.644347
vn 0.000000 0.999999 -0.001016
vn 0.000000 0.999999 -0.001016
vn 0.000000 0.999999 -0.001016
vn 0.000000 0.999999 -0.001016
vn -0.000000 -0.000000 -1.000000
vn -0.000000 -0.000000 -1.000000
vn -0.000000 -0.000000 -1.000000
vn -0.000000 -0.000000 -1.000000
vn -0.000000 -0.999999 0.001016
vn -0.000000 -0.999999 0.001016
vn -0.000000 -0.999999 0.001016
vn -0.000000 -0.999999 0.001016
vn 0.000000 0.000000 1.000000
vn 0.000000 0.000000 1.000000
vn 0.000000 0.000000 1.000000
vn 0.000000 0.000000 1.000000
vn 1.000000 0.000000 0.000000
vn 1.000000 0.000000 0.000000
vn 1.000000 0.000000 0.000000
vn 1.000000 0.000000 0.000000
vn -1.000000 -0.000000 -0.000000
vn -1.000000 -0.000000 -0.000000
vn -1.000000 -0.000000 -0.000000
vn -1.000000 -0.000000 -0.000000
s off
g polySurface19 polySurface38
usemtl initialShadingGroup
f 17/65/49 18/44/50 20/64/51 19/61/52
f 19/46/53 20/62/54 22/47/55 21/59/56
f 21/48/57 22/60/58 24/49/59 23/57/60
f 23/50/61 24/58/62 18/51/63 17/52/64
f 18/63/65 24/53/66 22/54/67 20/45/68
f 23/55/69 17/43/70 19/66/71 21/56/72
g default
v -1.370451 7.762756 9.224137
v -1.044480 7.762756 9.224137
v -1.370451 7.762756 6.411911
v -1.044480 7.762756 6.411911
v -1.370451 6.110576 6.411911
v -1.044480 6.110576 6.411911
v -1.370451 6.110576 9.224137
v -1.044480 6.110576 9.224137
vt 0.782102 0.009709
vt 0.805316 0.009709
vt 0.574489 0.102862
vt 0.784534 0.104561
vt 0.804775 0.159298
vt 0.551753 0.009645
vt 0.571993 0.102815
vt 0.551753 0.104497
vt 0.571993 0.159234
vt 0.551753 0.159234
vt 0.677079 0.009692
vt 0.677079 0.102862
vt 0.679512 0.009709
vt 0.679512 0.102879
vt 0.574490 0.009692
vt 0.805316 0.102879
vt 0.804775 0.104561
vt 0.785075 0.009709
vt 0.785075 0.102879
vt 0.782102 0.102879
vt 0.551753 0.102815
vt 0.571993 0.104497
vt 0.784534 0.159298
vt 0.571993 0.009645
vn -0.000000 1.000000 -0.000000
vn -0.000000 1.000000 -0.000000
vn -0.000000 1.000000 -0.000000
vn -0.000000 1.000000 -0.000000
vn -0.000000 -0.000000 -1.000000
vn -0.000000 -0.000000 -1.000000
vn -0.000000 -0.000000 -1.000000
vn -0.000000 -0.000000 -1.000000
vn 0.000000 -1.000000 0.000000
vn 0.000000 -1.000000 0.000000
vn 0.000000 -1.000000 0.000000
vn 0.000000 -1.000000 0.000000
vn 0.000000 0.000000 1.000000
vn 0.000000 0.000000 1.000000
vn 0.000000 0.000000 1.000000
vn 0.000000 0.000000 1.000000
vn 1.000000 0.000000 -0.000000
vn 1.000000 0.000000 -0.000000
vn 1.000000 0.000000 -0.000000
vn 1.000000 0.000000 -0.000000
vn -1.000000 -0.000000 0.000000
vn -1.000000 -0.000000 0.000000
vn -1.000000 -0.000000 0.000000
vn -1.000000 -0.000000 0.000000
s off
g polySurface19 polySurface48
usemtl initialShadingGroup
f 25/84/73 26/68/74 28/82/75 27/85/76
f 27/70/77 28/83/78 30/71/79 29/89/80
f 29/72/81 30/90/82 32/73/83 31/87/84
f 31/74/85 32/88/86 26/75/87 25/76/88
f 26/81/89 32/77/90 30/78/91 28/69/92
f 31/79/93 25/67/94 27/86/95 29/80/96
g default
v -10.966161 10.083394 -6.711349
v -3.221132 10.083394 -6.711355
v -10.966161 10.083394 -6.983034
v -3.221132 10.083394 -6.983027
v -10.966161 6.111761 -6.983034
v -3.221132 6.111761 -6.983027
v -10.966161 6.111761 -6.711349
v -3.221132 6.111761 -6.711355
vt 0.742456 0.764398
vt 0.781480 0.878106
vt 0.569784 0.770543
vt 0.569713 0.889886
vt 0.781704 0.995386
vt 0.569327 0.880744
vt 0.781317 0.887960
vt 0.569491 0.772608
vt 0.654879 0.763333
vt 0.654914 0.770543
vt 0.657347 0.764082
vt 0.657347 0.771296
vt 0.781480 0.772608
vt 0.781559 0.772735
vt 0.569327 0.887961
vt 0.569491 0.878106
vt 0.569677 0.779634
vt 0.781704 0.889886
vt 0.569713 0.995386
vt 0.781317 0.880744
vt 0.569677 0.772421
vt 0.742456 0.770981
vt 0.569818 0.763333
vt 0.781559 0.779320
vn -0.000000 1.000000 -0.000000
vn -0.000000 1.000000 -0.000000
vn -0.000000 1.000000 -0.000000
vn -0.000000 1.000000 -0.000000
vn 0.000001 -0.000000 -1.000000
vn 0.000001 -0.000000 -1.000000
vn 0.000001 -0.000000 -1.000000
vn 0.000001 -0.000000 -1.000000
vn -0.000000 -1.000000 0.000000
vn -0.000000 -1.000000 0.000000
vn -0.000000 -1.000000 0.000000
vn -0.000000 -1.000000 0.000000
vn 1.000000 -0.000000 -0.000000
vn 1.000000 -0.000000 -0.000000
vn 1.000000 -0.000000 -0.000000
vn 1.000000 -0.000000 -0.000000
vn -1.000000 0.000000 0.000000
vn -1.000000 0.000000 0.000000
vn -1.000000 0.000000 0.000000
vn -1.000000 0.000000 0.000000
vn 0.000001 0.000000 1.000000
vn 0.000001 0.000000 1.000000
vn 0.000001 0.000000 1.000000
vn 0.000001 0.000000 1.000000
s off
g polySurface19 polySurface47
usemtl initialShadingGroup
f 33/111/97 34/104/98 36/114/99 35/107/100
f 35/94/101 36/108/102 38/95/103 37/109/104
f 37/96/105 38/110/106 40/97/107 39/105/108
f 34/113/109 40/99/110 38/100/111 36/93/112
f 39/101/113 33/91/114 35/112/115 37/102/116
f 34/92/117 33/106/118 39/98/119 40/103/120
g default
v -10.964167 7.765912 9.235834
v -10.638197 7.765912 9.235834
v -10.964167 7.765912 6.373780
v -10.638197 7.765912 6.373780
v -10.964167 6.113732 6.373780
v -10.638197 6.113732 6.373780
v -10.964167 6.113732 9.235834
v -10.638197 6.113732 9.235834
vt 0.782252 0.010349
vt 0.805642 0.010349
vt 0.574584 0.104371
vt 0.785163 0.106057
vt 0.805331 0.160335
vt 0.551638 0.010588
vt 0.571806 0.104614
vt 0.551638 0.106296
vt 0.571806 0.160575
vt 0.551638 0.160575
vt 0.676807 0.010345
vt 0.676807 0.104371
vt 0.680030 0.010349
vt 0.680030 0.104374
vt 0.574584 0.010345
vt 0.805642 0.104373
vt 0.805331 0.106057
vt 0.785474 0.010349
vt 0.785474 0.104373
vt 0.782252 0.104374
vt 0.551638 0.104614
vt 0.571806 0.106296
vt 0.785163 0.160335
vt 0.571806 0.010588
vn -0.000000 1.000000 -0.000000
vn -0.000000 1.000000 -0.000000
vn -0.000000 1.000000 -0.000000
vn -0.000000 1.000000 -0.000000
vn 0.000000 -0.000000 -1.000000
vn 0.000000 -0.000000 -1.000000
vn 0.000000 -0.000000 -1.000000
vn 0.000000 -0.000000 -1.000000
vn 0.000000 -1.000000 0.000000
vn 0.000000 -1.000000 0.000000
vn 0.000000 -1.000000 0.000000
vn 0.000000 -1.000000 0.000000
vn -0.000000 0.000000 1.000000
vn -0.000000 0.000000 1.000000
vn -0.000000 0.000000 1.000000
vn -0.000000 0.000000 1.000000
vn 1.000000 -0.000000 0.000000
vn 1.000000 -0.000000 0.000000
vn 1.000000 -0.000000 0.000000
vn 1.000000 -0.000000 0.000000
vn -1.000000 0.000000 -0.000000
vn -1.000000 0.000000 -0.000000
vn -1.000000 0.000000 -0.000000
vn -1.000000 0.000000 -0.000000
s off
g polySurface19 polySurface49
usemtl initialShadingGroup
f 41/132/121 42/116/122 44/130/123 43/133/124
f 43/118/125 44/131/126 46/119/127 45/137/128
f 45/120/129 46/138/130 48/121/131 47/135/132
f 47/122/133 48/136/134 42/123/135 41/124/136
f 42/129/137 48/125/138 46/126/139 44/117/140
f 47/127/141 41/115/142 43/134/143 45/128/144
g default
v -1.950301 10.097794 6.484145
v -1.059150 10.097794 6.484145
v -1.950301 10.097794 6.158174
v -1.059150 10.097794 6.158174
v -1.950301 6.126162 6.158174
v -1.059150 6.126162 6.158174
v -1.950301 6.126162 6.484145
v -1.059150 6.126162 6.484145
vt 0.184550 0.630813
vt 0.189446 0.630813
vt 0.189446 0.633293
vt 0.184550 0.633293
vt 0.189446 0.663097
vt 0.184550 0.663097
vt 0.189446 0.665554
vt 0.184550 0.665554
vt 0.189446 0.695466
vt 0.184550 0.695466
vt 0.211626 0.630813
vt 0.211626 0.633293
vt 0.162767 0.630813
vt 0.162767 0.633293
vn -0.000000 1.000000 -0.000000
vn -0.000000 1.000000 -0.000000
vn -0.000000 1.000000 -0.000000
vn -0.000000 1.000000 -0.000000
vn -0.000000 -0.000000 -1.000000
vn -0.000000 -0.000000 -1.000000
vn -0.000000 -0.000000 -1.000000
vn -0.000000 -0.000000 -1.000000
vn 0.000000 -1.000000 0.000000
vn 0.000000 -1.000000 0.000000
vn 0.000000 -1.000000 0.000000
vn 0.000000 -1.000000 0.000000
vn 0.000000 0.000000 1.000000
vn 0.000000 0.000000 1.000000
vn 0.000000 0.000000 1.000000
vn 0.000000 0.000000 1.000000
vn 1.000000 -0.000000 -0.000000
vn 1.000000 -0.000000 -0.000000
vn 1.000000 -0.000000 -0.000000
vn 1.000000 -0.000000 -0.000000
vn -1.000000 0.000000 0.000000
vn -1.000000 0.000000 0.000000
vn -1.000000 0.000000 0.000000
vn -1.000000 0.000000 0.000000
s off
g polySurface19 polySurface43
usemtl initialShadingGroup
f 49/139/145 50/140/146 52/141/147 51/142/148
f 51/142/149 52/141/150 54/143/151 53/144/152
f 53/144/153 54/143/154 56/145/155 55/146/156
f 55/146/157 56/145/158 50/147/159 49/148/160
f 50/140/161 56/149/162 54/150/163 52/141/164
f 55/151/165 49/139/166 51/142/167 53/152/168
g default
v -10.967669 10.090457 6.374124
v -10.641697 10.090457 6.374124
v -10.967669 10.090457 -6.709788
v -10.641697 10.090457 -6.709788
v -10.967669 6.154194 -6.709788
v -10.641697 6.154194 -6.709788
v -10.967669 6.154194 6.374124
v -10.641697 6.154194 6.374124
vt 0.119555 0.786656
vt 0.119099 0.775710
vt 0.434111 0.983857
vt 0.270504 0.772898
vt 0.433043 0.764953
vt 0.119771 0.995212
vt 0.434107 0.987267
vt 0.115231 0.772598
vt 0.271027 0.764653
vt 0.271027 0.772598
vt 0.119319 0.887055
vt 0.434111 0.887055
vt 0.119555 0.883457
vt 0.434348 0.883457
vt 0.119099 0.783655
vt 0.434348 0.786656
vt 0.119319 0.983857
vt 0.434343 0.775710
vt 0.434107 0.995212
vt 0.115231 0.764653
vt 0.433043 0.772898
vt 0.119771 0.987267
vt 0.434342 0.783655
vt 0.270504 0.764953
vn -0.000000 1.000000 -0.000000
vn -0.000000 1.000000 -0.000000
vn -0.000000 1.000000 -0.000000
vn -0.000000 1.000000 -0.000000
vn -0.000000 -0.000000 -1.000000
vn -0.000000 -0.000000 -1.000000
vn -0.000000 -0.000000 -1.000000
vn -0.000000 -0.000000 -1.000000
vn 0.000000 -1.000000 0.000000
vn 0.000000 -1.000000 0.000000
vn 0.000000 -1.000000 0.000000
vn 0.000000 -1.000000 0.000000
vn 0.000000 0.000000 1.000000
vn 0.000000 0.000000 1.000000
vn 0.000000 0.000000 1.000000
vn 0.000000 0.000000 1.000000
vn 1.000000 -0.000000 -0.000000
vn 1.000000 -0.000000 -0.000000
vn 1.000000 -0.000000 -0.000000
vn 1.000000 -0.000000 -0.000000
vn -1.000000 0.000000 0.000000
vn -1.000000 0.000000 0.000000
vn -1.000000 0.000000 0.000000
vn -1.000000 0.000000 0.000000
s off
g polySurface19 polySurface41
usemtl initialShadingGroup
f 57/167/169 58/154/170 60/170/171 59/175/172
f 59/156/173 60/176/174 62/157/175 61/173/176
f 61/158/177 62/174/178 64/159/179 63/171/180
f 63/160/181 64/172/182 58/161/183 57/162/184
f 58/169/185 64/163/186 62/164/187 60/155/188
f 63/165/189 57/153/190 59/168/191 61/166/192
g default
v -10.966007 7.767756 9.244863
v -1.053412 7.767756 9.244857
v -10.966007 7.767756 8.918892
v -1.053412 7.767756 8.918886
v -10.966007 6.146475 8.918892
v -1.053412 6.146475 8.918886
v -10.966007 6.146475 9.244863
v -1.053412 6.146475 9.244857
vt 0.283280 0.076069
vt 0.002844 0.016506
vt 0.290915 0.076792
vt 0.003204 0.068386
vt 0.274633 0.115201
vt 0.003199 0.117421
vt 0.274624 0.126834
vt 0.003205 0.018819
vt 0.274634 0.065634
vt 0.003205 0.065634
vt 0.284786 0.008609
vt 0.290914 0.008609
vt 0.283280 0.007886
vt 0.277151 0.007886
vt 0.284786 0.076792
vt 0.002844 0.007093
vt 0.274633 0.068386
vt 0.274273 0.016506
vt 0.274273 0.007093
vt 0.277151 0.076069
vt 0.003199 0.126834
vt 0.274634 0.018819
vt 0.003204 0.115201
vt 0.274624 0.117421
vn -0.000000 1.000000 -0.000000
vn -0.000000 1.000000 -0.000000
vn -0.000000 1.000000 -0.000000
vn -0.000000 1.000000 -0.000000
vn -0.000001 -0.000000 -1.000000
vn -0.000001 -0.000000 -1.000000
vn -0.000001 -0.000000 -1.000000
vn -0.000001 -0.000000 -1.000000
vn 0.000000 -1.000000 0.000000
vn 0.000000 -1.000000 0.000000
vn 0.000000 -1.000000 0.000000
vn 0.000000 -1.000000 0.000000
vn 0.000001 0.000000 1.000000
vn 0.000001 0.000000 1.000000
vn 0.000001 0.000000 1.000000
vn 0.000001 0.000000 1.000000
vn 1.000000 -0.000000 -0.000000
vn 1.000000 -0.000000 -0.000000
vn 1.000000 -0.000000 -0.000000
vn 1.000000 -0.000000 -0.000000
vn -1.000000 0.000000 0.000000
vn -1.000000 0.000000 0.000000
vn -1.000000 0.000000 0.000000
vn -1.000000 0.000000 0.000000
s off
g polySurface19 polySurface46
usemtl initialShadingGroup
f 65/194/193 66/178/194 68/192/195 67/195/196
f 67/180/197 68/193/198 70/181/199 69/199/200
f 69/182/201 70/200/202 72/183/203 71/197/204
f 71/184/205 72/198/206 66/185/207 65/186/208
f 66/191/209 72/187/210 70/188/211 68/179/212
f 71/189/213 65/177/214 67/196/215 69/190/216
g default
v -10.959220 10.097794 6.484151
v -10.068065 10.097794 6.484151
v -10.959220 10.097794 6.158180
v -10.068065 10.097794 6.158180
v -10.959220 6.126162 6.158180
v -10.068065 6.126162 6.158180
v -10.959220 6.126162 6.484151
v -10.068065 6.126162 6.484151
vt 0.133203 0.504850
vt 0.148576 0.504621
vt 0.131647 0.707279
vt 0.039082 0.505082
vt 0.076855 0.707880
vt 0.148612 0.609927
vt 0.162429 0.564425
vt 0.078612 0.505272
vt 0.116385 0.708069
vt 0.078612 0.708068
vt 0.117830 0.504482
vt 0.131647 0.504481
vt 0.133210 0.707596
vt 0.147023 0.707595
vt 0.162427 0.609929
vt 0.116385 0.505271
vt 0.039080 0.707879
vt 0.148610 0.564426
vt 0.162392 0.550127
vt 0.076853 0.505079
vt 0.117830 0.707276
vt 0.162397 0.504608
vt 0.148585 0.550127
vt 0.147030 0.504850
vn 0.000000 1.000000 -0.000000
vn 0.000000 1.000000 -0.000000
vn 0.000000 1.000000 -0.000000
vn 0.000000 1.000000 -0.000000
vn -0.000000 -0.000000 -1.000000
vn -0.000000 -0.000000 -1.000000
vn -0.000000 -0.000000 -1.000000
vn -0.000000 -0.000000 -1.000000
vn -0.000000 -1.000000 0.000000
vn -0.000000 -1.000000 0.000000
vn -0.000000 -1.000000 0.000000
vn -0.000000 -1.000000 0.000000
vn 0.000000 0.000000 1.000000
vn 0.000000 0.000000 1.000000
vn 0.000000 0.000000 1.000000
vn 0.000000 0.000000 1.000000
vn 1.000000 -0.000000 -0.000000
vn 1.000000 -0.000000 -0.000000
vn 1.000000 -0.000000 -0.000000
vn 1.000000 -0.000000 -0.000000
vn -1.000000 0.000000 0.000000
vn -1.000000 0.000000 0.000000
vn -1.000000 0.000000 0.000000
vn -1.000000 0.000000 0.000000
s off
g polySurface19 polySurface45
usemtl initialShadingGroup
f 73/223/217 74/202/218 76/222/219 75/219/220
f 75/204/221 76/220/222 78/205/223 77/217/224
f 77/206/225 78/218/226 80/207/227 79/215/228
f 79/208/229 80/216/230 74/209/231 73/210/232
f 74/221/233 80/211/234 78/212/235 76/203/236
f 79/213/237 73/201/238 75/224/239 77/214/240
g default
v -8.387330 10.430104 -2.690681
v -8.387330 10.430104 -4.259417
v -8.550315 10.430104 -2.690681
v -8.550315 10.430104 -4.259417
v -8.550315 6.111761 -2.690681
v -8.550315 6.111761 -4.259417
v -8.387330 6.111761 -2.690681
v -8.387330 6.111761 -4.259417
vt 0.367815 0.579503
vt 0.507364 0.579687
vt 0.505539 0.722002
vt 0.375896 0.579481
vt 0.436106 0.722054
vt 0.515445 0.660861
vt 0.521700 0.579269
vt 0.437434 0.579601
vt 0.497644 0.722173
vt 0.437434 0.722173
vt 0.499283 0.579432
vt 0.505539 0.579432
vt 0.367815 0.722076
vt 0.374070 0.722076
vt 0.499283 0.722002
vt 0.513619 0.579687
vt 0.436106 0.579481
vt 0.507364 0.661281
vt 0.513620 0.661281
vt 0.374070 0.579503
vt 0.521700 0.660861
vt 0.497644 0.579601
vt 0.375896 0.722053
vt 0.515444 0.579269
vn 0.000000 1.000000 -0.000000
vn 0.000000 1.000000 -0.000000
vn 0.000000 1.000000 -0.000000
vn 0.000000 1.000000 -0.000000
vn -1.000000 0.000000 0.000000
vn -1.000000 0.000000 0.000000
vn -1.000000 0.000000 0.000000
vn -1.000000 0.000000 0.000000
vn -0.000000 -1.000000 0.000000
vn -0.000000 -1.000000 0.000000
vn -0.000000 -1.000000 0.000000
vn -0.000000 -1.000000 0.000000
vn 1.000000 -0.000000 -0.000000
vn 1.000000 -0.000000 -0.000000
vn 1.000000 -0.000000 -0.000000
vn 1.000000 -0.000000 -0.000000
vn 0.000000 -0.000000 -1.000000
vn 0.000000 -0.000000 -1.000000
vn 0.000000 -0.000000 -1.000000
vn 0.000000 -0.000000 -1.000000
vn -0.000000 0.000000 1.000000
vn -0.000000 0.000000 1.000000
vn -0.000000 0.000000 1.000000
vn -0.000000 0.000000 1.000000
s off
g polySurface19 polySurface44
usemtl initialShadingGroup
f 81/242/241 82/226/242 84/240/243 83/243/244
f 83/228/245 84/241/246 86/229/247 85/247/248
f 85/230/249 86/248/250 88/231/251 87/245/252
f 87/232/253 88/246/254 82/233/255 81/234/256
f 82/239/257 88/235/258 86/236/259 84/227/260
f 87/237/261 81/225/262 83/244/263 85/238/264
