# This file uses centimeters as units for non-parametric coordinates.

mtllib mesa_octagonal.mtl
g default
v 2.515371 -0.157563 -2.515370
v 0.000000 -0.157563 -3.557271
v -2.515371 -0.157563 -2.515370
v -3.557271 -0.157563 0.000000
v -2.515371 -0.157563 2.515370
v 0.000000 -0.157563 3.557271
v 2.515371 -0.157563 2.515371
v 3.557272 -0.157563 0.000000
v 2.515371 0.157563 -2.515370
v 0.000000 0.157563 -3.557271
v -2.515371 0.157563 -2.515370
v -3.557271 0.157563 0.000000
v -2.515371 0.157563 2.515370
v 0.000000 0.157563 3.557271
v 2.515371 0.157563 2.515371
v 3.557272 0.157563 0.000000
v 0.241144 -0.157563 -0.241142
v 0.000000 -0.157563 -0.341028
v -0.241144 -0.157563 -0.241142
v -0.341028 -0.157563 0.000000
v -0.241144 -0.157563 0.241142
v 0.000000 -0.157563 0.341028
v 0.241144 -0.157563 0.241142
v 0.341029 -0.157563 0.000000
v 0.916549 0.157563 -0.916549
v 0.000000 0.157563 -1.296195
v -0.916549 0.157563 -0.916549
v -1.296195 0.157563 0.000000
v -0.916549 0.157563 0.916550
v 0.000000 0.157563 1.296195
v 0.916549 0.157563 0.916550
v 1.296195 0.157563 0.000000
v 0.241144 -2.233444 -0.241142
v 0.000000 -2.233444 -0.341028
v -0.241144 -2.233444 -0.241142
v -0.341028 -2.233444 0.000000
v -0.241144 -2.233444 0.241142
v 0.000000 -2.233444 0.341028
v 0.241144 -2.233444 0.241142
v 0.341029 -2.233444 0.000000
v 0.000000 -2.233444 0.000007
v 0.341023 -2.233444 0.000014
v 0.000000 0.157563 0.000000
vt 0.551861 0.361654
vt 0.550641 0.202286
vt 0.617176 0.849684
vt 0.622330 0.642480
vt 0.437087 0.090460
vt 0.467016 0.992555
vt 0.277721 0.091685
vt 0.259812 0.987401
vt 0.165899 0.205237
vt 0.116941 0.837241
vt 0.167120 0.364599
vt 0.122095 0.630037
vt 0.280670 0.476423
vt 0.272255 0.487167
vt 0.440034 0.475204
vt 0.479459 0.492321
vt 0.982312 0.431901
vt 0.931041 0.432719
vt 0.924536 0.024958
vt 0.975806 0.024140
vt 0.623433 0.437640
vt 0.616907 0.029880
vt 0.674703 0.436820
vt 0.668176 0.029059
vt 0.459834 0.779878
vt 0.461712 0.704378
vt 0.405119 0.831937
vt 0.329618 0.830059
vt 0.277559 0.775344
vt 0.279437 0.699844
vt 0.334152 0.647784
vt 0.409653 0.649662
vt 0.725973 0.435999
vt 0.719446 0.028238
vt 0.777243 0.435178
vt 0.770716 0.027418
vt 0.828513 0.434358
vt 0.821986 0.026597
vt 0.879785 0.433516
vt 0.873233 0.025768
vt 0.873249 0.025789
vt 0.811485 0.661227
vt 0.369636 0.739861
vt 0.065979 0.694576
vt 0.063811 0.469530
vt 0.068147 0.919621
vt 0.106052 0.247202
vt 0.106283 0.472258
vt 0.106515 0.697314
vt 0.106746 0.922369
vt 0.061643 0.244485
vt 0.366783 0.301837
vt 0.377476 0.290862
vt 0.351462 0.302037
vt 0.340487 0.291344
vt 0.340287 0.276023
vt 0.350979 0.265048
vt 0.366300 0.264849
vt 0.377275 0.275541
vt 0.889448 0.830264
vt 0.747093 0.835886
vt 0.642451 0.739194
vt 0.733520 0.492188
vt 0.636829 0.596829
vt 0.980525 0.583258
vt 0.875884 0.486567
vt 0.986146 0.725622
vt 0.889455 0.830264
vt 0.572163 0.438461
vt 0.565636 0.030701
vt 0.039932 0.694826
vt 0.037764 0.469781
vt 0.079772 0.022173
vt 0.080003 0.247229
vt 0.080235 0.472285
vt 0.080466 0.697340
vt 0.033428 0.019691
vt 0.035596 0.244736
vt 0.042100 0.919872
vt 0.105821 0.022147
vt 0.080698 0.922396
vt 0.059475 0.019440
vn 0.382684 0.000000 -0.923880
vn 0.382684 0.000000 -0.923880
vn 0.382684 0.000000 -0.923880
vn 0.382684 0.000000 -0.923880
vn -0.382684 0.000000 -0.923880
vn -0.382684 0.000000 -0.923880
vn -0.382684 0.000000 -0.923880
vn -0.382684 0.000000 -0.923880
vn -0.923880 0.000000 -0.382683
vn -0.923880 0.000000 -0.382683
vn -0.923880 0.000000 -0.382683
vn -0.923880 0.000000 -0.382683
vn -0.923880 0.000000 0.382683
vn -0.923880 0.000000 0.382683
vn -0.923880 0.000000 0.382683
vn -0.923880 0.000000 0.382683
vn -0.382684 0.000000 0.923880
vn -0.382684 0.000000 0.923880
vn -0.382684 0.000000 0.923880
vn -0.382684 0.000000 0.923880
vn 0.382683 0.000000 0.923880
vn 0.382683 0.000000 0.923880
vn 0.382683 0.000000 0.923880
vn 0.382683 0.000000 0.923880
vn 0.923880 0.000000 0.382684
vn 0.923880 0.000000 0.382684
vn 0.923880 0.000000 0.382684
vn 0.923880 0.000000 0.382684
vn 0.923879 0.000000 -0.382684
vn 0.923879 0.000000 -0.382684
vn 0.923879 0.000000 -0.382684
vn 0.923879 0.000000 -0.382684
vn 0.000000 -1.000000 -0.000000
vn 0.000000 -1.000000 -0.000000
vn 0.000000 -1.000000 -0.000000
vn 0.000000 -1.000000 -0.000000
vn 0.000000 -1.000000 -0.000000
vn 0.000000 -1.000000 -0.000000
vn 0.000000 -1.000000 -0.000000
vn 0.000000 -1.000000 -0.000000
vn 0.000000 -1.000000 0.000000
vn 0.000000 -1.000000 0.000000
vn 0.000000 -1.000000 0.000000
vn 0.000000 -1.000000 0.000000
vn 0.000000 -1.000000 -0.000000
vn 0.000000 -1.000000 -0.000000
vn 0.000000 -1.000000 -0.000000
vn 0.000000 -1.000000 -0.000000
vn 0.000000 -1.000000 0.000000
vn 0.000000 -1.000000 0.000000
vn 0.000000 -1.000000 0.000000
vn 0.000000 -1.000000 0.000000
vn 0.000000 -1.000000 -0.000000
vn 0.000000 -1.000000 -0.000000
vn 0.000000 -1.000000 -0.000000
vn 0.000000 -1.000000 -0.000000
vn 0.000000 -1.000000 0.000000
vn 0.000000 -1.000000 0.000000
vn 0.000000 -1.000000 0.000000
vn 0.000000 -1.000000 0.000000
vn 0.000000 -1.000000 0.000000
vn 0.000000 -1.000000 0.000000
vn 0.000000 -1.000000 0.000000
vn 0.000000 -1.000000 0.000000
vn 0.000000 1.000000 0.000000
vn 0.000000 1.000000 0.000000
vn 0.000000 1.000000 0.000000
vn 0.000000 1.000000 0.000000
vn 0.000000 1.000000 -0.000000
vn 0.000000 1.000000 -0.000000
vn 0.000000 1.000000 -0.000000
vn 0.000000 1.000000 -0.000000
vn 0.000000 1.000000 0.000000
vn 0.000000 1.000000 0.000000
vn 0.000000 1.000000 0.000000
vn 0.000000 1.000000 0.000000
vn 0.000000 1.000000 0.000000
vn 0.000000 1.000000 0.000000
vn 0.000000 1.000000 0.000000
vn 0.000000 1.000000 0.000000
vn 0.000000 1.000000 0.000000
vn 0.000000 1.000000 0.000000
vn 0.000000 1.000000 0.000000
vn 0.000000 1.000000 0.000000
vn 0.000000 1.000000 -0.000000
vn 0.000000 1.000000 -0.000000
vn 0.000000 1.000000 -0.000000
vn 0.000000 1.000000 -0.000000
vn 0.000000 1.000000 -0.000000
vn 0.000000 1.000000 -0.000000
vn 0.000000 1.000000 -0.000000
vn 0.000000 1.000000 -0.000000
vn 0.000000 1.000000 0.000000
vn 0.000000 1.000000 0.000000
vn 0.000000 1.000000 0.000000
vn 0.000000 1.000000 0.000000
vn 0.382686 0.000000 -0.923879
vn 0.382686 0.000000 -0.923879
vn 0.382686 0.000000 -0.923879
vn 0.382686 0.000000 -0.923879
vn -0.382686 0.000000 -0.923879
vn -0.382686 0.000000 -0.923879
vn -0.382686 0.000000 -0.923879
vn -0.382686 0.000000 -0.923879
vn -0.923879 0.000000 -0.382684
vn -0.923879 0.000000 -0.382684
vn -0.923879 0.000000 -0.382684
vn -0.923879 0.000000 -0.382684
vn -0.923879 0.000000 0.382684
vn -0.923879 0.000000 0.382684
vn -0.923879 0.000000 0.382684
vn -0.923879 0.000000 0.382684
vn -0.382686 0.000000 0.923879
vn -0.382686 0.000000 0.923879
vn -0.382686 0.000000 0.923879
vn -0.382686 0.000000 0.923879
vn 0.382686 0.000000 0.923879
vn 0.382686 0.000000 0.923879
vn 0.382686 0.000000 0.923879
vn 0.382686 0.000000 0.923879
vn 0.923879 0.000000 0.382684
vn 0.923879 0.000000 0.382684
vn 0.923879 0.000000 0.382684
vn 0.923879 0.000000 0.382684
vn 0.923879 0.000000 -0.382684
vn 0.923879 0.000000 -0.382684
vn 0.923879 0.000000 -0.382684
vn 0.923879 0.000000 -0.382684
vn 0.000000 -1.000000 -0.000000
vn 0.000000 -1.000000 0.000000
vn 0.000000 -1.000000 0.000000
vn 0.000000 -1.000000 -0.000000
vn 0.000000 -1.000000 -0.000000
vn 0.000000 -1.000000 -0.000000
vn 0.000000 -1.000000 0.000000
vn 0.000000 -1.000000 0.000000
vn 0.000000 -1.000000 0.000000
vn 0.000000 -1.000000 0.000000
vn 0.929143 0.000000 0.369721
vn 0.000000 1.000000 -0.000000
vn 0.000000 1.000000 -0.000000
vn 0.000000 1.000000 0.000000
vn 0.000000 1.000000 -0.000000
vn 0.000000 1.000000 0.000000
vn 0.000000 1.000000 -0.000000
vn 0.000000 1.000000 -0.000000
vn 0.000000 1.000000 -0.000000
vn 0.000000 1.000000 0.000000
s off
g mesa_octagonal
usemtl initialShadingGroup
f 1/72/1 2/78/2 10/51/3 9/45/4
f 2/78/5 3/77/6 11/82/7 10/51/8
f 3/81/9 4/76/10 12/49/11 11/50/12
f 4/76/13 5/75/14 13/48/15 12/49/16
f 5/75/17 6/74/18 14/47/19 13/48/20
f 6/74/21 7/73/22 15/80/23 14/47/24
f 7/79/25 8/71/26 16/44/27 15/46/28
f 8/71/29 1/72/30 9/45/31 16/44/32
f 2/2/33 1/1/34 17/53/35 18/59/36
f 3/5/37 2/2/38 18/59/39 19/58/40
f 4/7/41 3/5/42 19/58/43 20/57/44
f 5/9/45 4/7/46 20/57/47 21/56/48
f 6/11/49 5/9/50 21/56/51 22/55/52
f 7/13/53 6/11/54 22/55/55 23/54/56
f 8/15/57 7/13/58 23/54/59 24/52/60
f 1/1/61 8/15/62 24/52/63 17/53/64
f 9/4/65 10/3/66 26/25/67 25/26/68
f 10/3/69 11/6/70 27/27/71 26/25/72
f 11/6/73 12/8/74 28/28/75 27/27/76
f 12/8/77 13/10/78 29/29/79 28/28/80
f 13/10/81 14/12/82 30/30/83 29/29/84
f 14/12/85 15/14/86 31/31/87 30/30/88
f 15/14/89 16/16/90 32/32/91 31/31/92
f 16/16/93 9/4/94 25/26/95 32/32/96
f 18/17/97 17/18/98 33/19/99 34/20/100
f 19/21/101 18/69/102 34/70/103 35/22/104
f 20/23/105 19/21/106 35/22/107 36/24/108
f 21/33/109 20/23/110 36/24/111 37/34/112
f 22/35/113 21/33/114 37/34/115 38/36/116
f 23/37/117 22/35/118 38/36/119 39/38/120
s 1
f 24/39/121 23/37/122 39/38/123 42/40/124
s off
f 17/18/125 24/39/126 40/41/127 33/19/128
s 2
f 41/42/129 42/60/130 39/61/131 38/62/132
f 36/63/133 41/42/129 38/62/132 37/64/134
f 34/65/135 41/42/129 36/63/133 35/66/136
f 34/65/135 33/67/137 40/68/138 42/60/130 41/42/129
s 1
f 24/39/121 42/40/124 40/41/139
s 3
f 26/25/140 43/43/141 32/32/142 25/26/143
f 26/25/140 27/27/144 28/28/145 43/43/141
f 43/43/141 28/28/145 29/29/146 30/30/147
f 32/32/142 43/43/141 30/30/147 31/31/148
