# This file uses centimeters as units for non-parametric coordinates.

mtllib sillon_con_descansabrazos.mtl
g default
v -1.895550 0.000000 3.189582
v -0.828897 0.000000 3.189582
v 1.597452 0.000000 3.189582
v -1.895550 1.327325 3.189582
v -0.828897 1.327325 3.189582
v 1.597452 1.327325 3.189582
v -1.895550 1.327325 2.341026
v -0.809739 1.112578 2.341026
v 1.578294 1.542072 2.341026
v -1.895550 1.327325 -2.303454
v -0.809739 1.112578 -2.303454
v 1.578294 1.542072 -2.303454
v -1.895550 1.327325 -3.152010
v -0.828897 1.327325 -3.152010
v 1.597452 1.327325 -3.152010
v -1.895550 0.000000 -3.152010
v -0.828897 0.000000 -3.152010
v 1.597452 0.000000 -3.152010
v -1.895550 0.000000 -2.303452
v -0.828897 0.000000 -2.303452
v 1.597452 0.000000 -2.303452
v -1.895550 0.000000 2.341025
v -0.828897 0.000000 2.341025
v 1.597452 0.000000 2.341025
v -1.895550 2.087440 3.189582
v -0.799544 1.822187 3.189582
v -0.799544 1.822187 2.341026
v -1.895550 2.087440 2.341026
v 1.568099 2.352693 3.189582
v 1.568099 2.352693 2.341026
v -0.799544 1.822187 -2.303454
v -1.895550 2.087440 -2.303454
v -0.799544 1.822187 -3.152010
v -1.895550 2.087440 -3.152010
v 1.568099 2.352693 -2.303454
v 1.568099 2.352693 -3.152010
v -1.895550 2.810391 3.106338
v -0.828897 2.810391 3.106338
v -0.828897 3.003553 2.280059
v -1.895550 3.003553 2.280059
v -0.828897 4.060800 -2.242487
v -1.895550 4.060800 -2.242487
v -0.828897 4.253961 -3.068765
v -1.895550 4.253961 -3.068765
vt 0.913593 0.050081
vt 0.971678 0.050081
vt 0.971678 0.140938
vt 0.913593 0.155637
vt 0.971678 0.211125
vt 0.913593 0.211125
vt 0.595673 0.050081
vt 0.595673 0.155637
vt 0.537588 0.050081
vt 0.537588 0.140938
vt 0.595673 0.211125
vt 0.537588 0.211125
vt 0.022919 0.301748
vt 0.081004 0.301748
vt 0.081004 0.392605
vt 0.022919 0.392605
vt 0.398924 0.301748
vt 0.398924 0.392605
vt 0.081004 0.444636
vt 0.022919 0.444636
vt 0.457008 0.301748
vt 0.457008 0.392605
vt 0.398924 0.444636
vt 0.085177 0.579715
vt 0.028617 0.592937
vt 0.457008 0.444636
vt 0.394751 0.507345
vt 0.451310 0.494123
vt 0.595673 0.319101
vt 0.913593 0.319101
vt 0.913593 0.367674
vt 0.595673 0.367674
vt 0.909419 0.520910
vt 0.599846 0.448540
vt 0.971678 0.367674
vt 0.965979 0.534132
vt 0.537588 0.367674
vt 0.543286 0.435318
vt 0.304518 0.645144
vt 0.304518 0.566211
vt 0.365663 0.566211
vt 0.365663 0.645144
vt 0.700332 0.566211
vt 0.700332 0.645144
vt 0.761477 0.566211
vt 0.761477 0.645144
vt 0.308878 0.851854
vt 0.308878 0.676648
vt 0.371672 0.676648
vt 0.371672 0.851854
vt 0.632240 0.843646
vt 0.632240 0.668440
vt 0.695033 0.668440
vt 0.695033 0.843646
vt 0.022919 0.228735
vt 0.081004 0.228735
vt 0.022919 0.062648
vt 0.081004 0.062648
vt 0.398924 0.228735
vt 0.398924 0.062648
vt 0.457008 0.228735
vt 0.457008 0.062648
vt 0.033749 0.689086
vt 0.112681 0.689086
vt 0.112681 0.787308
vt 0.033749 0.787308
vt 0.292231 0.689086
vt 0.292231 0.787308
vt 0.114853 0.823928
vt 0.033749 0.843556
vt 0.290059 0.863185
vt 0.112681 0.897055
vt 0.033749 0.897055
vt 0.976810 0.755629
vt 0.897878 0.755629
vt 0.897878 0.657407
vt 0.976810 0.657407
vt 0.976810 0.811878
vt 0.895705 0.792249
vt 0.718328 0.755629
vt 0.718328 0.657407
vt 0.976810 0.972201
vt 0.897878 0.972201
vt 0.720500 0.831507
vt 0.486085 0.679833
vt 0.486085 0.855793
vt 0.429836 0.855793
vt 0.429836 0.679833
vt 0.525630 0.855793
vt 0.525630 0.679833
vt 0.581879 0.679833
vt 0.581879 0.855793
vn 0.000000 0.000000 1.000000
vn 0.000000 0.000000 1.000000
vn 0.000000 0.000000 1.000000
vn 0.000000 0.000000 1.000000
vn 0.000000 0.000000 1.000000
vn 0.000000 0.000000 1.000000
vn 0.000000 0.973746 0.227635
vn 0.000000 0.973746 0.227635
vn 0.000000 0.973746 0.227635
vn 0.000000 0.973746 0.227635
vn -0.218644 0.975805 0.000000
vn -0.218644 0.975805 0.000000
vn -0.218644 0.975805 0.000000
vn -0.218644 0.975805 0.000000
vn 0.000000 0.973746 0.227635
vn 0.000000 0.973746 0.227635
vn -0.177012 0.984209 0.000000
vn -0.177012 0.984209 0.000000
vn -0.177012 0.984209 0.000000
vn -0.177012 0.984209 0.000000
vn 0.000000 0.973746 0.227635
vn 0.000000 0.973746 0.227635
vn -0.218644 0.975805 0.000000
vn -0.218644 0.975805 0.000000
vn -0.218644 0.975805 0.000000
vn -0.218644 0.975805 0.000000
vn 0.000000 0.000000 -1.000000
vn 0.000000 0.000000 -1.000000
vn 0.000000 0.000000 -1.000000
vn 0.000000 0.000000 -1.000000
vn 0.000000 0.000000 -1.000000
vn 0.000000 0.000000 -1.000000
vn 0.000000 -1.000000 0.000000
vn 0.000000 -1.000000 0.000000
vn 0.000000 -1.000000 0.000000
vn 0.000000 -1.000000 0.000000
vn 0.000000 -1.000000 0.000000
vn 0.000000 -1.000000 0.000000
vn 0.000000 -1.000000 0.000000
vn 0.000000 -1.000000 0.000000
vn 0.000000 -1.000000 0.000000
vn 0.000000 -1.000000 0.000000
vn 0.000000 -1.000000 0.000000
vn 0.000000 -1.000000 0.000000
vn 0.999932 0.011588 0.001517
vn 0.999923 0.006676 0.010443
vn 0.999923 0.006676 0.010443
vn 0.999931 0.011703 0.001308
vn 0.999932 0.011588 -0.001517
vn 0.999931 0.011703 -0.001308
vn 0.999923 0.006676 -0.010443
vn 0.999923 0.006676 -0.010443
vn -1.000000 -0.000000 0.000000
vn -1.000000 0.000000 0.000000
vn -1.000000 0.000000 0.000000
vn -1.000000 -0.000000 0.000000
vn -1.000000 0.000000 0.000000
vn -1.000000 0.000000 0.000000
vn -1.000000 -0.000000 0.000000
vn -1.000000 -0.000000 0.000000
vn 0.000000 0.000000 1.000000
vn 0.000000 0.000000 1.000000
vn 0.000000 0.000000 1.000000
vn 0.000000 0.000000 1.000000
vn -1.000000 0.000000 0.000000
vn -1.000000 0.000000 0.000000
vn -1.000000 0.000000 0.000000
vn -1.000000 0.000000 0.000000
vn 0.000000 0.000000 1.000000
vn 0.000000 0.000000 1.000000
vn 0.000000 0.000000 1.000000
vn 0.000000 0.000000 1.000000
vn 0.999731 0.021535 -0.008560
vn 0.999731 0.021535 -0.008560
vn 0.999731 0.021535 -0.008560
vn 0.999731 0.021535 -0.008560
vn 0.000000 0.000000 -1.000000
vn 0.000000 0.000000 -1.000000
vn 0.000000 0.000000 -1.000000
vn 0.000000 0.000000 -1.000000
vn 0.999897 -0.014366 0.000000
vn 0.999897 -0.014366 0.000000
vn 0.999897 -0.014366 0.000000
vn 0.999897 -0.014366 0.000000
vn -1.000000 0.000000 0.000000
vn -1.000000 0.000000 0.000000
vn -1.000000 0.000000 0.000000
vn -1.000000 0.000000 0.000000
vn 0.000000 0.000000 -1.000000
vn 0.000000 0.000000 -1.000000
vn 0.000000 0.000000 -1.000000
vn 0.000000 0.000000 -1.000000
vn -1.000000 0.000000 0.000000
vn -1.000000 0.000000 0.000000
vn -1.000000 0.000000 0.000000
vn -1.000000 0.000000 0.000000
vn 0.000000 0.000000 1.000000
vn 0.000000 0.000000 1.000000
vn 0.000000 0.000000 1.000000
vn 0.000000 0.000000 1.000000
vn 0.999732 0.021535 0.008560
vn 0.999731 0.021535 0.008560
vn 0.999732 0.021535 0.008560
vn 0.999732 0.021535 0.008560
vn 0.000000 0.000000 -1.000000
vn 0.000000 0.000000 -1.000000
vn 0.000000 0.000000 -1.000000
vn 0.000000 0.000000 -1.000000
vn 0.011901 0.097034 0.995210
vn 0.011901 0.097034 0.995210
vn 0.011901 0.097034 0.995210
vn 0.011901 0.097034 0.995210
vn 0.999624 0.027258 0.003144
vn 0.999624 0.027258 0.003144
vn 0.999624 0.027258 0.003144
vn 0.999624 0.027258 0.003144
vn -1.000000 0.000000 0.000000
vn -1.000000 0.000000 0.000000
vn -1.000000 0.000000 0.000000
vn -1.000000 0.000000 0.000000
vn 0.999851 0.017163 0.001979
vn 0.999851 0.017163 0.001979
vn 0.999851 0.017163 0.001979
vn 0.999851 0.017163 0.001979
vn -1.000000 0.000000 0.000000
vn -1.000000 0.000000 0.000000
vn -1.000000 0.000000 0.000000
vn -1.000000 0.000000 0.000000
vn 0.999921 0.012524 0.001444
vn 0.999921 0.012524 0.001444
vn 0.999921 0.012524 0.001444
vn 0.999921 0.012524 0.001444
vn 0.004441 0.036211 -0.999334
vn 0.004441 0.036211 -0.999334
vn 0.004441 0.036211 -0.999334
vn 0.004441 0.036211 -0.999334
vn -1.000000 0.000000 0.000000
vn -1.000000 0.000000 0.000000
vn -1.000000 0.000000 0.000000
vn -1.000000 0.000000 0.000000
s 1
g sofa
usemtl initialShadingGroup
f 1/63/1 2/64/2 5/65/3 4/66/4
f 2/64/2 3/67/5 6/68/6 5/65/3
s 2
f 37/39/7 38/40/8 39/41/9 40/42/10
s off
f 26/47/11 29/48/12 30/49/13 27/50/14
s 2
f 40/42/10 39/41/9 41/43/15 42/44/16
s off
f 8/29/17 9/8/18 12/4/19 11/30/20
s 2
f 42/44/16 41/43/15 43/45/21 44/46/22
s off
f 31/51/23 35/52/24 36/53/25 33/54/26
s 3
f 13/74/27 14/75/28 17/76/29 16/77/30
f 14/75/28 15/80/31 18/81/32 17/76/29
s 4
f 16/13/33 17/55/34 20/56/35 19/14/36
f 17/55/34 18/57/37 21/58/38 20/56/35
f 19/14/36 20/56/35 23/59/39 22/17/40
f 20/56/35 21/58/38 24/60/41 23/59/39
f 22/17/40 23/59/39 2/61/42 1/21/43
f 23/59/39 24/60/41 3/62/44 2/61/42
s 5
f 21/1/45 18/2/46 15/3/47 12/4/48
f 24/7/49 21/1/45 12/4/48 9/8/50
f 3/9/51 24/7/49 9/8/50 6/10/52
s 6
f 16/13/53 19/14/54 10/15/55 13/16/56
f 19/14/54 22/17/57 7/18/58 10/15/55
f 22/17/57 1/21/59 4/22/60 7/18/58
s off
f 4/66/61 5/65/62 26/69/63 25/70/64
f 7/18/65 4/22/66 25/26/67 28/23/68
f 5/65/69 6/68/70 29/71/71 26/69/72
f 6/10/73 9/8/74 30/11/75 29/12/76
f 9/85/77 8/86/78 27/87/79 30/88/80
f 8/29/81 11/30/82 31/31/83 27/32/84
f 10/15/85 7/18/86 28/23/87 32/19/88
f 14/75/89 13/74/90 34/78/91 33/79/92
f 13/16/93 10/15/94 32/19/95 34/20/96
f 11/89/97 12/90/98 35/91/99 31/92/100
f 12/4/101 15/3/102 36/5/103 35/6/104
f 15/80/105 14/75/106 33/79/107 36/84/108
f 25/70/109 26/69/110 38/72/111 37/73/112
f 26/37/113 27/32/114 39/34/115 38/38/116
f 28/23/117 25/26/118 37/28/119 40/27/120
f 27/32/121 31/31/122 41/33/123 39/34/124
f 32/19/125 28/23/126 40/27/127 42/24/128
f 31/31/129 33/35/130 43/36/131 41/33/132
f 33/79/133 34/78/134 44/82/135 43/83/136
f 34/20/137 32/19/138 42/24/139 44/25/140
