# This file uses centimeters as units for non-parametric coordinates.

mtllib comoda.mtl
g default
v -1.986414 0.000000 0.991509
v 2.028552 0.000000 0.991509
v -1.986414 4.252680 0.991509
v 2.028552 4.252680 0.991509
v -1.986414 4.252680 -0.933287
v 2.028552 4.252680 -0.933287
v -1.986414 0.000000 -0.933287
v 2.028552 0.000000 -0.933287
v -1.548791 0.000000 0.991509
v -1.548791 0.000000 -0.933287
v -1.548791 4.252680 -0.933287
v -1.548791 4.252680 0.991509
v 1.501584 0.000000 0.991509
v 1.501584 4.252680 0.991509
v 1.501584 4.252680 -0.933287
v 1.501584 0.000000 -0.933287
v -1.986414 4.003018 0.991509
v -1.548791 4.003017 0.991509
v 1.501584 4.003018 0.991509
v 2.028552 4.003018 0.991509
v 2.028552 4.003017 -0.933287
v 1.501584 4.003017 -0.933287
v -1.548791 4.003018 -0.933287
v -1.986414 4.003017 -0.933287
v -1.986414 0.267705 0.991509
v -1.548791 0.267706 0.991509
v 1.501584 0.267705 0.991509
v 2.028552 0.267705 0.991509
v 2.028552 0.267706 -0.933287
v 1.501584 0.267706 -0.933287
v -1.548791 0.267705 -0.933287
v -1.986414 0.267706 -0.933287
v -1.548791 2.152697 0.991509
v -1.986414 2.152697 0.991509
v -1.986414 2.152697 -0.933287
v -1.548791 2.152697 -0.933287
v 1.501584 2.152697 -0.933287
v 2.028552 2.152697 -0.933287
v 2.028552 2.152697 0.991509
v 1.501584 2.152697 0.991509
v -1.548791 4.003017 1.176815
v 1.501584 4.003018 1.176815
v -1.548791 2.152697 1.176815
v 1.501584 2.152697 1.176815
v 1.501584 2.152697 1.181568
v -1.548791 2.152697 1.181568
v -1.548791 0.267706 1.181568
v 1.501584 0.267705 1.181569
v -0.839061 3.252665 1.175855
v 0.791854 3.252665 1.175855
v -0.839061 2.903051 1.175855
v 0.791854 2.903051 1.175855
v 0.774897 1.457889 1.182528
v -0.822104 1.457889 1.182528
v -0.822104 0.962513 1.182528
v 0.774897 0.962513 1.182529
v 0.774897 1.457889 1.402955
v -0.822104 1.457889 1.402955
v -0.822104 0.962513 1.402955
v 0.774897 0.962513 1.402956
v -0.839061 3.252665 1.396282
v 0.791854 3.252665 1.396282
v -0.839061 2.903051 1.396282
v 0.791854 2.903051 1.396282
vt 0.221184 0.984755
vt 0.221278 0.965321
vt 0.458720 0.966469
vt 0.458626 0.985903
vt 0.225109 0.172869
vt 0.462551 0.174017
vt 0.462457 0.193451
vt 0.225015 0.192303
vt 0.222784 0.653725
vt 0.223508 0.503899
vt 0.460950 0.505046
vt 0.460226 0.654873
vt 0.499739 0.966667
vt 0.503476 0.193649
vt 0.503570 0.174215
vt 0.499645 0.986101
vt 0.190950 0.192138
vt 0.187213 0.965156
vt 0.187119 0.984590
vt 0.191044 0.172704
vt 0.189444 0.503734
vt 0.188719 0.653560
vt 0.501970 0.505245
vt 0.501245 0.655071
vt 0.188619 0.674399
vt 0.222683 0.674563
vt 0.221974 0.821292
vt 0.187909 0.821127
vt 0.940118 0.669253
vt 0.946988 0.917008
vt 0.870137 0.919140
vt 0.863267 0.671384
vt 0.500435 0.822638
vt 0.933854 0.301307
vt 0.460125 0.675711
vt 0.501144 0.675910
vt 0.502070 0.484406
vt 0.502780 0.337678
vt 0.461051 0.484208
vt 0.461760 0.337480
vt 0.223609 0.483060
vt 0.224319 0.336332
vt 0.190254 0.336167
vt 0.189544 0.482896
vt 0.763000 0.666476
vt 0.769488 0.919506
vt 0.715247 0.920897
vt 0.708759 0.667867
vt 0.575628 0.543702
vt 0.935395 0.541393
vt 0.574228 0.325472
vt 0.933994 0.323163
vt 0.573943 0.281201
vt 0.933710 0.278892
vt 0.572516 0.058881
vt 0.932284 0.056572
vt 0.658767 0.454667
vt 0.851120 0.453432
vt 0.658502 0.413433
vt 0.850856 0.412198
vt 0.659124 0.198704
vt 0.847477 0.197495
vt 0.658749 0.140278
vt 0.847102 0.139069
vt 0.649566 0.967391
vt 0.649471 0.986825
vt 0.037387 0.964432
vt 0.037292 0.983866
vt 0.650971 0.676634
vt 0.650262 0.823362
vt 0.038792 0.673674
vt 0.038083 0.820403
vt 0.651072 0.655796
vt 0.038893 0.652836
vt 0.553773 0.543842
vt 0.551528 0.281344
vt 0.955850 0.323022
vt 0.957250 0.541253
vt 0.550101 0.059025
vt 0.954699 0.056428
vt 0.947937 0.951205
vt 0.871085 0.953336
vt 0.862319 0.637188
vt 0.939170 0.635057
vt 0.770365 0.953705
vt 0.716124 0.955096
vt 0.225109 0.172869
vt 0.225833 0.023042
vt 0.463275 0.024190
vt 0.191768 0.022878
vt 0.191044 0.172704
vt 0.504294 0.024389
vt 0.501970 0.505245
vt 0.935535 0.563248
vt 0.575769 0.565557
vt 0.572373 0.036465
vt 0.932140 0.034156
vt 0.974315 0.668305
vt 0.981185 0.916060
vt 0.835940 0.920088
vt 0.829070 0.672333
vt 0.797199 0.665599
vt 0.803687 0.918630
vt 0.681048 0.921774
vt 0.674560 0.668744
vt 0.707882 0.633668
vt 0.762123 0.632277
vt 0.552372 0.325612
vt 0.574087 0.303617
vt 0.459416 0.822439
vt 0.956126 0.278748
vn 0.000000 0.000000 1.000000
vn 0.000000 0.000000 1.000000
vn 0.000000 0.000000 1.000000
vn 0.000000 0.000000 1.000000
vn 0.000000 1.000000 0.000000
vn 0.000000 1.000000 0.000000
vn 0.000000 1.000000 0.000000
vn 0.000000 1.000000 0.000000
vn 0.000000 0.000000 -1.000000
vn -0.000000 0.000000 -1.000000
vn 0.000000 0.000000 -1.000000
vn 0.000000 0.000000 -1.000000
vn 0.000000 -1.000000 0.000000
vn 0.000000 -1.000000 0.000000
vn 0.000000 -1.000000 0.000000
vn 0.000000 -1.000000 0.000000
vn 1.000000 0.000000 0.000000
vn 1.000000 0.000000 0.000000
vn 1.000000 0.000000 0.000000
vn 1.000000 0.000000 0.000000
vn -1.000000 0.000000 0.000000
vn -1.000000 0.000000 0.000000
vn -1.000000 0.000000 0.000000
vn -1.000000 0.000000 0.000000
vn 0.000000 -1.000000 0.000000
vn 0.000000 -1.000000 0.000000
vn -0.000000 0.000000 -1.000000
vn -0.000000 0.000000 -1.000000
vn 0.000000 1.000000 0.000000
vn 0.000000 1.000000 0.000000
vn 0.000000 0.000000 1.000000
vn 0.000000 0.000000 1.000000
vn 0.000000 0.000000 1.000000
vn 0.000000 0.000000 1.000000
vn 0.000000 1.000000 0.000000
vn 0.000000 1.000000 0.000000
vn 0.000000 0.000000 -1.000000
vn 0.000000 0.000000 -1.000000
vn 0.000000 -1.000000 0.000000
vn 0.000000 -1.000000 0.000000
vn 0.000000 -0.000000 1.000000
vn 0.000000 -0.000000 1.000000
vn 0.000000 0.000000 1.000000
vn 0.000000 0.000000 1.000000
vn -0.000000 0.000000 1.000000
vn -0.000000 0.000000 1.000000
vn -0.000000 0.000000 1.000000
vn -0.000000 0.000000 1.000000
vn 0.000000 0.000000 1.000000
vn 0.000000 0.000000 1.000000
vn 0.000000 -0.000000 1.000000
vn 0.000000 0.000000 1.000000
vn 1.000000 0.000000 0.000000
vn 1.000000 -0.000000 0.000000
vn 1.000000 -0.000000 0.000000
vn 1.000000 -0.000000 0.000000
vn 0.000000 0.000000 -1.000000
vn -0.000000 0.000000 -1.000000
vn 0.000000 0.000000 -1.000000
vn 0.000000 0.000000 -1.000000
vn 0.000000 -0.000000 -1.000000
vn 0.000000 0.000000 -1.000000
vn 0.000000 0.000000 -1.000000
vn 0.000000 0.000000 -1.000000
vn -1.000000 0.000000 0.000000
vn -1.000000 0.000000 0.000000
vn -1.000000 0.000000 0.000000
vn -1.000000 0.000000 0.000000
vn 0.000000 -0.000000 1.000000
vn 0.000000 -0.000000 1.000000
vn 0.000000 -0.000000 1.000000
vn 0.000000 -0.000000 1.000000
vn 1.000000 0.000000 0.000000
vn 1.000000 0.000000 0.000000
vn -0.000000 -0.000000 -1.000000
vn 0.000000 0.000000 -1.000000
vn 0.000000 -0.000000 -1.000000
vn 0.000000 -0.000000 -1.000000
vn -1.000000 0.000000 0.000000
vn -1.000000 0.000000 0.000000
vn 0.000000 0.000000 1.000000
vn 0.000000 0.000000 1.000000
vn 0.000000 0.000000 1.000000
vn 0.000000 0.000000 1.000000
vn -0.000000 1.000000 0.000000
vn -0.000000 1.000000 0.000000
vn -0.000000 1.000000 0.000000
vn -0.000000 1.000000 0.000000
vn -1.000000 0.000000 0.000000
vn -1.000000 0.000000 0.000000
vn -1.000000 0.000000 0.000000
vn -1.000000 0.000000 0.000000
vn 0.000000 -1.000000 0.000000
vn 0.000000 -1.000000 0.000000
vn 0.000000 -1.000000 0.000000
vn 0.000000 -1.000000 0.000000
vn 1.000000 0.000000 0.000000
vn 1.000000 0.000000 0.000000
vn 1.000000 0.000000 0.000000
vn 1.000000 0.000000 0.000000
vn 0.000000 1.000000 0.000000
vn 0.000000 1.000000 0.000000
vn 0.000000 1.000000 0.000000
vn 0.000000 1.000000 0.000000
vn -1.000000 0.000000 0.000000
vn -1.000000 0.000000 0.000000
vn -1.000000 0.000000 0.000000
vn -1.000000 0.000000 0.000000
vn -0.000000 -1.000000 0.000000
vn -0.000000 -1.000000 0.000000
vn -0.000000 -1.000000 0.000000
vn -0.000000 -1.000000 0.000000
vn 1.000000 0.000000 0.000000
vn 1.000000 0.000000 0.000000
vn 1.000000 0.000000 0.000000
vn 1.000000 0.000000 0.000000
vn 0.000000 -0.001280 0.999999
vn 0.000000 -0.001280 0.999999
vn 0.000000 -0.001280 0.999999
vn 0.000000 -0.001280 0.999999
vn 0.001353 0.000000 0.999999
vn 0.001353 0.000000 0.999999
vn 0.001353 0.000000 0.999999
vn 0.001353 0.000000 0.999999
vn 0.000000 0.001280 0.999999
vn 0.000000 0.001280 0.999999
vn 0.000000 0.001280 0.999999
vn 0.000000 0.001280 0.999999
vn -0.001353 0.000000 0.999999
vn -0.001353 0.000000 0.999999
vn -0.001353 0.000000 0.999999
vn -0.001353 0.000000 0.999999
vn 0.000000 0.001382 0.999999
vn 0.000000 0.001382 0.999999
vn 0.000000 0.001382 0.999999
vn 0.000000 0.001382 0.999999
vn -0.001321 0.000000 0.999999
vn -0.001321 0.000000 0.999999
vn -0.001321 0.000000 0.999999
vn -0.001321 0.000000 0.999999
vn -0.000000 -0.001382 0.999999
vn -0.000000 -0.001382 0.999999
vn -0.000000 -0.001382 0.999999
vn -0.000000 -0.001382 0.999999
vn 0.001321 0.000000 0.999999
vn 0.001321 0.000000 0.999999
vn 0.001321 0.000000 0.999999
vn 0.001321 0.000000 0.999999
vn 0.000000 1.000000 0.000000
vn 0.000000 1.000000 0.000000
vn 0.000000 1.000000 0.000000
vn 0.000000 1.000000 0.000000
vn -1.000000 0.000000 0.000000
vn -1.000000 0.000000 0.000000
vn -1.000000 0.000000 0.000000
vn -1.000000 0.000000 0.000000
vn 0.000000 -1.000000 0.000000
vn 0.000000 -1.000000 0.000000
vn 0.000000 -1.000000 0.000000
vn 0.000000 -1.000000 0.000000
vn 1.000000 0.000000 0.000000
vn 1.000000 0.000000 0.000000
vn 1.000000 0.000000 0.000000
vn 1.000000 0.000000 0.000000
vn 0.000000 1.000000 0.000000
vn 0.000000 1.000000 0.000000
vn 0.000000 1.000000 0.000000
vn 0.000000 1.000000 0.000000
vn -1.000000 0.000000 0.000000
vn -1.000000 0.000000 0.000000
vn -1.000000 0.000000 0.000000
vn -1.000000 0.000000 0.000000
vn 0.000000 -1.000000 0.000000
vn 0.000000 -1.000000 0.000000
vn 0.000000 -1.000000 0.000000
vn 0.000000 -1.000000 0.000000
vn 1.000000 0.000000 0.000000
vn 1.000000 0.000000 0.000000
vn 1.000000 0.000000 0.000000
vn 1.000000 0.000000 0.000000
s 1
g comoda
usemtl initialShadingGroup
f 12/1/1 18/2/2 19/3/3 14/4/4
s 2
f 11/87/5 12/88/6 14/89/7 15/6/8
s 3
f 22/7/9 23/8/10 11/5/11 15/6/12
s 4
f 9/9/13 10/10/14 16/11/15 13/12/16
s 5
f 20/13/17 21/65/18 6/66/19 4/16/20
s 6
f 24/67/21 17/18/22 3/19/23 5/68/24
s 4
f 7/21/25 10/10/14 9/9/13 1/22/26
s 3
f 5/20/27 11/5/11 23/8/10 24/17/28
s 2
f 3/90/29 12/88/6 11/87/5 5/91/30
s 1
f 17/18/31 18/2/2 12/1/1 3/19/32
f 14/4/4 19/3/3 20/13/33 4/16/34
s 2
f 15/6/8 14/89/7 4/92/35 6/15/36
s 3
f 21/14/37 22/7/9 15/6/12 6/15/38
s 4
f 13/12/16 16/11/15 8/93/39 2/24/40
s 1
f 25/25/41 26/26/42 33/27/43 34/28/44
s off
f 57/29/45 58/30/46 59/31/47 60/32/48
s 1
f 39/33/49 40/110/50 27/35/51 28/36/52
s 5
f 28/36/53 29/69/54 38/70/55 39/33/56
s 3
f 29/37/57 30/39/58 37/40/59 38/38/60
f 30/39/58 31/41/61 36/42/62 37/40/59
f 35/43/63 36/42/62 31/41/61 32/44/64
s 6
f 32/71/65 25/25/66 34/28/67 35/72/68
s 1
f 1/22/69 9/9/70 26/26/42 25/25/41
f 27/35/51 26/26/42 9/9/70 13/12/71
f 28/36/52 27/35/51 13/12/71 2/24/72
s 5
f 2/24/73 8/73/74 29/69/54 28/36/53
s 3
f 16/11/75 30/39/58 29/37/57 8/23/76
f 10/10/77 31/41/61 30/39/58 16/11/75
f 32/44/64 31/41/61 10/10/77 7/21/78
s 6
f 7/74/79 1/22/80 25/25/66 32/71/65
s 1
f 34/28/44 33/27/43 18/2/2 17/18/31
s 6
f 35/72/68 34/28/67 17/18/22 24/67/21
s 3
f 24/17/28 23/8/10 36/42/62 35/43/63
f 37/40/59 36/42/62 23/8/10 22/7/9
f 38/38/60 37/40/59 22/7/9 21/14/37
s 5
f 39/33/56 38/70/55 21/65/18 20/13/17
s 1
f 20/13/33 19/3/3 40/110/50 39/33/49
s off
f 62/45/81 61/46/82 63/47/83 64/48/84
f 19/94/85 18/95/86 41/49/87 42/50/88
f 18/75/89 33/108/90 43/51/91 41/49/92
f 33/109/93 40/34/94 44/52/95 43/51/96
f 40/77/97 19/78/98 42/50/99 44/52/100
f 40/34/101 33/109/102 46/53/103 45/54/104
f 33/76/105 26/79/106 47/55/107 46/53/108
f 26/96/109 27/97/110 48/56/111 47/55/112
f 27/80/113 40/111/114 45/54/115 48/56/116
f 42/50/117 41/49/118 49/57/119 50/58/120
f 41/49/121 43/51/122 51/59/123 49/57/124
f 43/51/125 44/52/126 52/60/127 51/59/128
f 44/52/129 42/50/130 50/58/131 52/60/132
f 45/54/133 46/53/134 54/61/135 53/62/136
f 46/53/137 47/55/138 55/63/139 54/61/140
f 47/55/141 48/56/142 56/64/143 55/63/144
f 48/56/145 45/54/146 53/62/147 56/64/148
f 53/98/149 54/99/150 58/30/151 57/29/152
f 54/81/153 55/82/154 59/31/155 58/30/156
f 55/100/157 56/101/158 60/32/159 59/31/160
f 56/83/161 53/84/162 57/29/163 60/32/164
f 50/102/165 49/103/166 61/46/167 62/45/168
f 49/85/169 51/86/170 63/47/171 61/46/172
f 51/104/173 52/105/174 64/48/175 63/47/176
f 52/106/177 50/107/178 62/45/179 64/48/180
