# This file uses centimeters as units for non-parametric coordinates.

mtllib sillon_normal.mtl
g default
v -1.895550 0.000000 3.189582
v -0.828897 0.000000 3.189582
v 1.597452 0.000000 3.189582
v -1.895550 1.327325 3.189582
v -0.828897 1.327325 3.189582
v 1.597452 1.327325 3.189582
v -1.895550 1.327325 2.341026
v -0.809739 1.112578 2.341026
v 1.578294 1.148093 2.341026
v -1.895550 1.327325 -2.303454
v -0.828693 1.349554 -2.303454
v 1.597248 1.305096 -2.303454
v -1.895550 1.327325 -3.152010
v -0.805604 1.563914 -3.152010
v 1.574159 1.529379 -3.152010
v -1.895550 0.000000 -3.152010
v -0.828897 0.000000 -3.152010
v 1.597452 0.000000 -3.152010
v -1.895550 0.000000 -2.303452
v -0.828897 0.000000 -2.303452
v 1.597452 0.000000 -2.303452
v -1.895550 0.000000 2.341025
v -0.828897 0.000000 2.341025
v 1.597452 0.000000 2.341025
v -1.895550 3.123461 3.058088
v -0.828897 3.123461 3.058088
v -0.828897 2.690484 2.328309
v -1.895550 2.690484 2.328309
v -0.828897 4.060800 -2.242487
v -1.895550 4.060800 -2.242487
v -0.828897 4.253961 -3.068765
v -1.895550 4.253961 -3.068765
vt 0.921654 0.276941
vt 0.984237 0.276941
vt 0.984237 0.372569
vt 0.921654 0.372569
vt 0.588795 0.276941
vt 0.588795 0.372569
vt 0.527281 0.276941
vt 0.527281 0.372569
vt 0.034805 0.033277
vt 0.096306 0.033277
vt 0.096306 0.129478
vt 0.034805 0.129478
vt 0.432928 0.033277
vt 0.432929 0.129478
vt 0.100725 0.327595
vt 0.040838 0.341595
vt 0.494430 0.033277
vt 0.494430 0.129478
vt 0.432007 0.228277
vt 0.484900 0.259659
vt 0.590085 0.544731
vt 0.592286 0.657258
vt 0.538667 0.687271
vt 0.528759 0.549983
vt 0.920410 0.545344
vt 0.929759 0.738989
vt 0.982666 0.549075
vt 0.990691 0.747462
vt 0.350543 0.881849
vt 0.350543 0.760520
vt 0.870459 0.760520
vt 0.870459 0.881849
vt 0.267532 0.881849
vt 0.267532 0.760520
vt 0.964446 0.760520
vt 0.964446 0.881848
vt 0.984237 0.025704
vt 0.984237 0.102695
vt 0.921654 0.102695
vt 0.921654 0.025704
vt 0.588795 0.102695
vt 0.588795 0.025704
vt 0.527281 0.102695
vt 0.527281 0.025704
vt 0.051386 0.522746
vt 0.146086 0.522746
vt 0.146086 0.640589
vt 0.051386 0.640589
vt 0.361503 0.522746
vt 0.361503 0.640589
vt 0.146086 0.800054
vt 0.051386 0.800054
vt 0.488903 0.454414
vt 0.392135 0.475419
vt 0.394203 0.336571
vt 0.488903 0.336571
vt 0.488903 0.714247
vt 0.394203 0.714247
vt 0.180854 0.472353
vt 0.178786 0.336571
vn 0.000000 0.000000 1.000000
vn 0.000000 0.000000 1.000000
vn 0.000000 0.000000 1.000000
vn 0.000000 0.000000 1.000000
vn 0.000000 0.000000 1.000000
vn 0.000000 0.000000 1.000000
vn 0.000000 0.860025 -0.510252
vn 0.000000 0.860025 -0.510252
vn 0.000000 0.984722 0.174135
vn 0.000000 0.984722 0.174135
vn 0.000000 0.960509 0.278250
vn 0.000000 0.960509 0.278250
vn 0.001856 0.999100 0.042375
vn 0.001856 0.999100 0.042375
vn 0.001856 0.999100 0.042375
vn 0.001856 0.999100 0.042375
vn 0.000000 0.973746 0.227635
vn 0.000000 0.973746 0.227635
vn -0.000000 0.000000 -1.000000
vn -0.000000 0.000000 -1.000000
vn -0.000000 0.000000 -1.000000
vn -0.000000 0.000000 -1.000000
vn 0.000000 0.000000 -1.000000
vn 0.000000 0.000000 -1.000000
vn 0.000000 -1.000000 0.000000
vn 0.000000 -1.000000 0.000000
vn 0.000000 -1.000000 0.000000
vn 0.000000 -1.000000 0.000000
vn 0.000000 -1.000000 0.000000
vn 0.000000 -1.000000 0.000000
vn 0.000000 -1.000000 0.000000
vn 0.000000 -1.000000 0.000000
vn 0.000000 -1.000000 0.000000
vn 0.000000 -1.000000 0.000000
vn 0.000000 -1.000000 0.000000
vn 0.000000 -1.000000 0.000000
vn 0.999968 0.007961 -0.000385
vn 0.999887 0.008289 -0.012508
vn 0.999887 0.008289 -0.012508
vn 0.999968 0.007972 -0.000774
vn 0.999969 0.007868 -0.000049
vn 0.999969 0.007866 -0.000249
vn 0.999897 0.007738 -0.012104
vn 0.999897 0.007738 -0.012104
vn -1.000000 -0.000000 0.000000
vn -1.000000 0.000000 0.000000
vn -1.000000 0.000000 0.000000
vn -1.000000 -0.000000 0.000000
vn -1.000000 0.000000 0.000000
vn -1.000000 0.000000 0.000000
vn -1.000000 -0.000000 0.000000
vn -1.000000 -0.000000 0.000000
vn -1.000000 0.000000 0.000000
vn -1.000000 0.000000 0.000000
vn -1.000000 0.000000 0.000000
vn -1.000000 0.000000 0.000000
vn -1.000000 -0.000000 0.000000
vn -1.000000 -0.000000 0.000000
vn -1.000000 -0.000000 0.000000
vn -1.000000 -0.000000 0.000000
vn -0.003249 0.029615 -0.999556
vn -0.003249 0.029615 -0.999556
vn -0.003249 0.029615 -0.999556
vn -0.003249 0.029615 -0.999556
vn -1.000000 0.000000 0.000000
vn -1.000000 0.000000 0.000000
vn -1.000000 0.000000 0.000000
vn -1.000000 0.000000 0.000000
vn 0.000000 0.073014 0.997331
vn 0.000000 0.073014 0.997331
vn 0.000000 0.073014 0.997331
vn 0.000000 0.073014 0.997331
vn 0.470197 0.860846 -0.194575
vn 0.999935 0.006090 0.009638
vn 0.999935 0.006090 0.009638
vn 0.583700 0.792347 -0.177425
vn 0.999989 0.004528 -0.001267
vn 0.999989 0.004528 -0.001267
vn 0.999989 0.004528 -0.001267
vn 0.999989 0.004528 -0.001267
vn 0.772546 0.612143 0.168684
vn 0.999883 0.003956 0.014747
vn 0.999883 0.003956 0.014747
vn 0.688122 0.700205 0.190266
vn 0.015912 0.968061 0.250210
vn 0.015912 0.968061 0.250210
vn -0.007186 0.974071 -0.226127
vn -0.007186 0.974071 -0.226127
s 1
g sofa02
usemtl initialShadingGroup
f 1/45/1 2/46/2 5/47/3 4/48/4
f 2/46/2 3/49/5 6/50/6 5/47/3
s 2
f 25/33/7 26/34/8 27/30/9 28/29/10
f 28/29/10 27/30/9 29/31/11 30/32/12
s off
f 8/21/13 9/6/14 12/4/15 11/25/16
s 2
f 30/32/12 29/31/11 31/35/17 32/36/18
s 3
f 13/53/19 14/54/20 17/55/21 16/56/22
f 14/54/20 15/59/23 18/60/24 17/55/21
s 4
f 16/37/25 17/38/26 20/39/27 19/40/28
f 17/38/26 18/2/29 21/1/30 20/39/27
f 19/40/28 20/39/27 23/41/31 22/42/32
f 20/39/27 21/1/30 24/5/33 23/41/31
f 22/42/32 23/41/31 2/43/34 1/44/35
f 23/41/31 24/5/33 3/7/36 2/43/34
s 5
f 21/1/37 18/2/38 15/3/39 12/4/40
f 24/5/41 21/1/37 12/4/40 9/6/42
f 3/7/43 24/5/41 9/6/42 6/8/44
s 6
f 16/9/45 19/10/46 10/11/47 13/12/48
f 19/10/46 22/13/49 7/14/50 10/11/47
f 22/13/49 1/17/51 4/18/52 7/14/50
s off
f 7/14/53 4/18/54 25/20/55 28/19/56
f 10/11/57 7/14/58 28/19/59 30/15/60
f 14/54/61 13/53/62 32/57/63 31/58/64
f 13/12/65 10/11/66 30/15/67 32/16/68
f 5/47/69 26/51/70 25/52/71 4/48/72
s 7
f 8/21/73 27/22/74 26/23/75 5/24/76
s off
f 11/25/77 29/26/78 27/22/79 8/21/80
s 8
f 14/27/81 31/28/82 29/26/83 11/25/84
f 12/4/85 15/3/86 14/27/81 11/25/84
s 7
f 6/8/87 9/6/88 8/21/73 5/24/76
